<svg xmlns="http://www.w3.org/2000/svg" viewBox="0 0 255.01 260.36"><defs><style>.cls-1{fill:#ff8961;}</style></defs><g id="Camada_2" data-name="Camada 2"><g id="Camada_1-2" data-name="Camada 1"><path class="cls-1" d="M16.19,260.36A14.5,14.5,0,0,1,1.83,243.82l11-77.47a14.5,14.5,0,0,1,28.71,4.07L36.82,203.7,81,158a14.46,14.46,0,0,1,10.38-4.42l104.19-.29,29.22-92.43A24.5,24.5,0,0,0,201.46,29H59.78a14.5,14.5,0,0,1,0-29H201.46a53.51,53.51,0,0,1,51,69.63L220.06,172.16a14.48,14.48,0,0,1-13.78,10.13l-108.66.3L26.61,256A14.49,14.49,0,0,1,16.19,260.36Z"/><path class="cls-1" d="M183.12,81.54H63.39a14.5,14.5,0,0,1,0-29H183.12a14.5,14.5,0,0,1,0,29Z"/><path class="cls-1" d="M27.19,81.55a13.55,13.55,0,0,1-1.43-.08c-.47,0-.94-.12-1.4-.21s-.93-.21-1.38-.35a12.39,12.39,0,0,1-1.33-.48,12.64,12.64,0,0,1-1.29-.61,12.58,12.58,0,0,1-1.22-.72c-.39-.26-.78-.55-1.14-.84s-.73-.63-1.06-1a10.68,10.68,0,0,1-1-1.07c-.3-.36-.59-.75-.86-1.14s-.5-.8-.72-1.22a13.86,13.86,0,0,1-.61-1.29c-.18-.43-.34-.88-.48-1.33A12.63,12.63,0,0,1,13,69.87c-.09-.46-.17-.93-.22-1.4a13.49,13.49,0,0,1-.06-1.42,13.87,13.87,0,0,1,.06-1.44c.05-.47.13-.94.22-1.4a13.88,13.88,0,0,1,.34-1.38c.14-.45.3-.89.48-1.34s.39-.86.61-1.28.46-.82.72-1.22.56-.78.86-1.14a10.58,10.58,0,0,1,1-1.06,13.9,13.9,0,0,1,1.06-1A13.38,13.38,0,0,1,19.14,55a14.61,14.61,0,0,1,2.51-1.34c.43-.18.88-.34,1.33-.48s.92-.25,1.38-.34.93-.16,1.4-.22a15.18,15.18,0,0,1,2.86,0c.47.06.94.13,1.4.22s.93.21,1.38.34.9.3,1.34.48a12.48,12.48,0,0,1,1.28.61,12.68,12.68,0,0,1,1.22.73,13.38,13.38,0,0,1,1.14.84,13.9,13.9,0,0,1,1.06,1,12.08,12.08,0,0,1,1,1.06c.3.36.58.75.85,1.14s.5.81.72,1.22a13.56,13.56,0,0,1,.61,1.28c.18.45.34.89.48,1.34a13.88,13.88,0,0,1,.34,1.38,13.15,13.15,0,0,1,.22,1.4,13.88,13.88,0,0,1,.07,1.44,13.5,13.5,0,0,1-.07,1.42,13.15,13.15,0,0,1-.22,1.4,12.63,12.63,0,0,1-.34,1.38c-.14.45-.3.9-.48,1.33A11.71,11.71,0,0,1,40,73.87c-.22.42-.46.82-.72,1.22s-.55.78-.85,1.14a12.21,12.21,0,0,1-1,1.07c-.33.33-.69.65-1.06,1s-.75.58-1.14.84a16,16,0,0,1-2.5,1.33,13.4,13.4,0,0,1-1.34.48c-.45.14-.92.25-1.38.35s-.93.16-1.4.21A13.55,13.55,0,0,1,27.19,81.55Z"/><path class="cls-1" d="M170.43,127.06H50.71a14.5,14.5,0,0,1,0-29H170.43a14.5,14.5,0,0,1,0,29Z"/><path class="cls-1" d="M14.51,127.06a13.69,13.69,0,0,1-1.43-.07,10.9,10.9,0,0,1-1.41-.22c-.46-.09-.92-.21-1.38-.34S9.4,126.13,9,126a12.48,12.48,0,0,1-1.28-.61q-.63-.33-1.23-.72c-.39-.27-.78-.55-1.14-.85a13.7,13.7,0,0,1-1.06-1,13.9,13.9,0,0,1-1-1.06c-.29-.36-.58-.75-.84-1.14a12.68,12.68,0,0,1-.73-1.22c-.22-.42-.42-.85-.61-1.28s-.34-.89-.48-1.34-.25-.92-.34-1.38-.16-.93-.22-1.4S0,113,0,112.56s0-1,.07-1.43.12-.94.22-1.4.21-.93.34-1.38.3-.9.48-1.33.39-.87.61-1.29a11.43,11.43,0,0,1,.73-1.21c.26-.4.55-.78.84-1.15a13.9,13.9,0,0,1,1-1.06,13.7,13.7,0,0,1,1.06-1c.36-.29.75-.58,1.14-.84s.81-.51,1.23-.73.85-.43,1.28-.61.88-.33,1.33-.47a11.63,11.63,0,0,1,1.38-.35,12.94,12.94,0,0,1,1.41-.21,14.48,14.48,0,0,1,4.26.21,11,11,0,0,1,1.37.35c.46.14.9.29,1.34.47s.86.39,1.28.61.83.47,1.23.73.77.55,1.14.84a13.7,13.7,0,0,1,1.06,1c.33.33.65.69,1,1.06a13.53,13.53,0,0,1,.84,1.15,13.39,13.39,0,0,1,.73,1.21q.33.63.6,1.29a12.39,12.39,0,0,1,.48,1.33,13.28,13.28,0,0,1,.35,1.38,11.27,11.27,0,0,1,.21,1.4,13.86,13.86,0,0,1,.08,1.43,13.55,13.55,0,0,1-.08,1.43,11,11,0,0,1-.21,1.4,13.28,13.28,0,0,1-.35,1.38,13.4,13.4,0,0,1-.48,1.34c-.18.43-.38.86-.6,1.28s-.47.83-.73,1.22a13.38,13.38,0,0,1-.84,1.14c-.31.37-.63.73-1,1.06a13.7,13.7,0,0,1-1.06,1c-.37.3-.76.58-1.14.85s-.81.5-1.23.72a12.48,12.48,0,0,1-1.28.61c-.44.18-.88.34-1.34.48s-.91.25-1.37.34a11.46,11.46,0,0,1-1.41.22A13.5,13.5,0,0,1,14.51,127.06Z"/></g></g></svg>