<svg xmlns="http://www.w3.org/2000/svg" viewBox="0 0 1056.52 236"><defs><style>.cls-1{fill:#ff8961;}.cls-2{fill:#302640;}.cls-3{fill:#7c80de;}</style></defs><g id="Camada_2" data-name="Camada 2"><g id="Camada_1-2" data-name="Camada 1"><path class="cls-1" d="M840.12,236A13.1,13.1,0,0,1,827,222.8a10.87,10.87,0,0,1,.1-1.8l10-70.2a13.12,13.12,0,0,1,26.1,2.7c0,.3-.1.7-.1,1l-4.3,30.2,40.1-41.4a13.43,13.43,0,0,1,9.4-4l94.4-.3,26.5-83.8a22.14,22.14,0,0,0-21.3-28.9H879.62a13.08,13.08,0,0,1-13.1-13.1A13.23,13.23,0,0,1,879.62,0H1008a48.48,48.48,0,0,1,48.5,48.5,47.93,47.93,0,0,1-2.3,14.6l-29.3,92.9a13.21,13.21,0,0,1-12.5,9.2l-98.5.3L849.62,232A13.07,13.07,0,0,1,840.12,236Z"/><path class="cls-1" d="M991.42,73.9H882.92a13.1,13.1,0,1,1,0-26.2h108.5a13.1,13.1,0,1,1,0,26.2Z"/><path class="cls-1" d="M850.12,73.9a5.7,5.7,0,0,1-1.3-.1c-.4-.1-.9-.1-1.3-.2l-1.2-.3c-.4-.1-.8-.3-1.2-.4a6.72,6.72,0,0,1-1.2-.6,4.13,4.13,0,0,1-1.1-.7,7,7,0,0,1-1-.8c-.3-.3-.7-.6-1-.9a9,9,0,0,1-.9-1,7.71,7.71,0,0,1-1.4-2.1,6.12,6.12,0,0,1-.5-1.2,5.64,5.64,0,0,1-.4-1.2l-.3-1.2a5.07,5.07,0,0,1-.2-1.3c0-.5-.1-.9-.1-1.3a5.7,5.7,0,0,1,.1-1.3c.1-.4.1-.9.2-1.3l.3-1.2c.1-.4.3-.8.4-1.2s.3-.8.5-1.2a4.13,4.13,0,0,1,.7-1.1,7,7,0,0,1,.8-1,9,9,0,0,1,.9-1c.3-.3.7-.6,1-.9A12.78,12.78,0,0,1,844,49a6.12,6.12,0,0,1,1.2-.5,5.64,5.64,0,0,1,1.2-.4l1.2-.3a5.07,5.07,0,0,1,1.3-.2,11.3,11.3,0,0,1,2.6,0,5.85,5.85,0,0,1,1.3.2l1.2.3c.4.1.8.3,1.2.4s.8.3,1.2.5a11,11,0,0,1,2.1,1.4,10.22,10.22,0,0,1,1.8,1.8c.3.3.5.7.8,1s.5.7.7,1.1a6.12,6.12,0,0,1,.5,1.2,5.64,5.64,0,0,1,.4,1.2l.3,1.2a5.07,5.07,0,0,1,.2,1.3c0,.5.1.9.1,1.3a5.7,5.7,0,0,1-.1,1.3c-.1.4-.1.9-.2,1.3l-.3,1.2a24.43,24.43,0,0,1-1,2.4,4.13,4.13,0,0,1-.7,1.1,7,7,0,0,1-.8,1,10.22,10.22,0,0,1-1.8,1.8c-.3.3-.7.5-1,.8s-.7.5-1.1.7l-1.2.6a5.64,5.64,0,0,1-1.2.4l-1.2.3a5.07,5.07,0,0,1-1.3.2C850.92,73.6,850.52,73.9,850.12,73.9Z"/><path class="cls-1" d="M979.92,115.2H871.42a13.1,13.1,0,1,1,0-26.2h108.5a13.1,13.1,0,1,1,0,26.2Z"/><path class="cls-1" d="M838.62,115.2a5.7,5.7,0,0,1-1.3-.1,5.85,5.85,0,0,1-1.3-.2l-1.2-.3c-.4-.1-.8-.3-1.2-.4a12.84,12.84,0,0,1-2.3-1.3,3.92,3.92,0,0,1-1-.8,12.8,12.8,0,0,1-1.9-1.9c-.3-.3-.5-.7-.8-1s-.5-.7-.7-1.1a6.12,6.12,0,0,1-.5-1.2,5.64,5.64,0,0,1-.4-1.2l-.3-1.2a5.07,5.07,0,0,1-.2-1.3c0-.5-.1-.9-.1-1.3a5.7,5.7,0,0,1,.1-1.3c.1-.4.1-.9.2-1.3l.3-1.2a24.43,24.43,0,0,1,1-2.4,6.73,6.73,0,0,1,.7-1.1,3.92,3.92,0,0,1,.8-1c.3-.3.6-.7.9-1a9,9,0,0,1,1-.9c.3-.3.7-.5,1-.8s.7-.5,1.1-.7l1.2-.6a5.64,5.64,0,0,1,1.2-.4l1.2-.3a5.07,5.07,0,0,1,1.3-.2,11.3,11.3,0,0,1,2.6,0,6.88,6.88,0,0,1,1.3.2,12.09,12.09,0,0,1,2.5.8,6.72,6.72,0,0,1,1.2.6,4.13,4.13,0,0,1,1.1.7,3.92,3.92,0,0,1,1,.8,12.8,12.8,0,0,1,1.9,1.9,8.74,8.74,0,0,0,.8,1c.2.4.5.7.7,1.1A6.12,6.12,0,0,1,851,97a5.64,5.64,0,0,1,.4,1.2,22.11,22.11,0,0,1,.5,2.5c0,.4.1.9.1,1.3a5.7,5.7,0,0,1-.1,1.3,5.85,5.85,0,0,1-.2,1.3l-.3,1.2c-.1.4-.3.8-.4,1.2s-.3.8-.5,1.2a4.13,4.13,0,0,1-.7,1.1,7,7,0,0,1-.8,1,12.8,12.8,0,0,1-1.9,1.9c-.3.3-.7.5-1,.8s-.7.5-1.1.7l-1.2.6a5.64,5.64,0,0,1-1.2.4l-1.2.3a5.07,5.07,0,0,1-1.3.2A7.44,7.44,0,0,0,838.62,115.2Z"/><path class="cls-2" d="M0,31.2a3.75,3.75,0,0,1,.8-2.5,2.81,2.81,0,0,1,2.5-.9H51a35,35,0,0,1,9.7,1.4A33.08,33.08,0,0,1,69,33.1a39.1,39.1,0,0,1,6.9,6,38.64,38.64,0,0,1,5.2,7.5,43.11,43.11,0,0,1,3.3,8.4,38.89,38.89,0,0,1,1.1,9,36.62,36.62,0,0,1-2.4,13.1,35.89,35.89,0,0,1-6.9,11.4,35.23,35.23,0,0,1-10.7,8.1,31.82,31.82,0,0,1-13.9,3.2H28.92v35.5c0,2.1-1.1,3.2-3.4,3.2H3.32a3.49,3.49,0,0,1-2.4-.8,2.72,2.72,0,0,1-.9-2.4Zm56.2,32.6a14.23,14.23,0,0,0-.8-4.5,12.28,12.28,0,0,0-2.3-4,11.24,11.24,0,0,0-3.6-2.9,10,10,0,0,0-4.8-1.1H28.92V76.2h15.8a10,10,0,0,0,4.8-1.1,11,11,0,0,0,3.6-2.8,12,12,0,0,0,2.2-4A11.3,11.3,0,0,0,56.22,63.8Z"/><path class="cls-2" d="M172.32,127.2a47.78,47.78,0,0,1-14.8,9.4,45,45,0,0,1-17.4,3.4,51,51,0,0,1-35.3-14,48.78,48.78,0,0,1-10.9-15.6,46.66,46.66,0,0,1-4-19.5,49.64,49.64,0,0,1,13.4-34.1,45.92,45.92,0,0,1,9.4-7.7,47.49,47.49,0,0,1,11.3-5,46.73,46.73,0,0,1,12.9-1.8,40.49,40.49,0,0,1,12,1.7,47.57,47.57,0,0,1,10.9,4.6,49.94,49.94,0,0,1,9.4,7.2,45.08,45.08,0,0,1,12,19.7,40.52,40.52,0,0,1,1.7,11.5c0,2.6,0,4.7-.1,6.3a6.67,6.67,0,0,1-1.2,3.9,5.45,5.45,0,0,1-3.5,2,41.65,41.65,0,0,1-7.1.6h-53.8a19,19,0,0,0,3,8,19.77,19.77,0,0,0,11.6,7.8,27.19,27.19,0,0,0,6.3.8,25.05,25.05,0,0,0,5.5-.6,49.45,49.45,0,0,0,5.5-1.5,30.62,30.62,0,0,0,4.9-2.2,15.17,15.17,0,0,0,3.5-2.6,11,11,0,0,1,2.1-1.4,4.07,4.07,0,0,1,1.8-.5,3.72,3.72,0,0,1,2,.7,21.1,21.1,0,0,1,2.3,1.9l7.9,9a5.24,5.24,0,0,1,1,1.8,8.75,8.75,0,0,1,.2,1.6,5,5,0,0,1-.8,2.6A6.48,6.48,0,0,1,172.32,127.2ZM136.42,65a13.42,13.42,0,0,0-5.6,1.2,20.47,20.47,0,0,0-5.1,3.1,29.82,29.82,0,0,0-4.3,4.4,23.26,23.26,0,0,0-3.1,5h38.1a37.73,37.73,0,0,0-3.4-5.4,24.38,24.38,0,0,0-4.2-4.3,15.69,15.69,0,0,0-5.4-2.9A20.53,20.53,0,0,0,136.42,65Z"/><path class="cls-2" d="M263.12,129.2a44,44,0,0,1-4.6,4,40.4,40.4,0,0,1-5.6,3.5,32.26,32.26,0,0,1-6.5,2.5,26.22,26.22,0,0,1-7.3,1,44.72,44.72,0,0,1-18.7-3.8,44,44,0,0,1-14.7-10.5,48.23,48.23,0,0,1-9.7-15.5,55.43,55.43,0,0,1,0-38.5,49.73,49.73,0,0,1,9.6-15.5A44.73,44.73,0,0,1,220.32,46,46.34,46.34,0,0,1,239,42.2a38.08,38.08,0,0,1,7.5.7,23.9,23.9,0,0,1,6.2,2.1,24.34,24.34,0,0,1,5.1,3.2,34.43,34.43,0,0,1,4.4,4.1V21.2a5.85,5.85,0,0,1,1.5-4,5.09,5.09,0,0,1,4.4-1.6h16.8a5.22,5.22,0,0,1,2.1.4,8.17,8.17,0,0,1,2,1.2,6.55,6.55,0,0,1,1.5,1.8,4.65,4.65,0,0,1,.6,2.3V132.8q0,5.7-6,5.7h-14.7a5.87,5.87,0,0,1-2.3-.4,3.6,3.6,0,0,1-1.4-1.1,10.42,10.42,0,0,1-1-1.8c-.3-.7-.7-1.6-1.1-2.5Zm-43.7-38a28.61,28.61,0,0,0,1.5,9.2,21.4,21.4,0,0,0,4.4,7.4,20.32,20.32,0,0,0,15.7,6.8,25.22,25.22,0,0,0,9-1.7,23.44,23.44,0,0,0,7.3-4.7,24,24,0,0,0,7.2-15.9v-1a23.82,23.82,0,0,0-1.8-9.1,25.71,25.71,0,0,0-5-7.6,23.16,23.16,0,0,0-16.8-7.1,20.94,20.94,0,0,0-8.9,1.9,20.26,20.26,0,0,0-6.8,5.2,23.76,23.76,0,0,0-4.3,7.6,29.78,29.78,0,0,0-1.5,9Z"/><path class="cls-2" d="M387.22,127.2a47.78,47.78,0,0,1-14.8,9.4A45,45,0,0,1,355,140a51,51,0,0,1-35.3-14,48.78,48.78,0,0,1-10.9-15.6,46.66,46.66,0,0,1-4-19.5,49.13,49.13,0,0,1,1.6-12.7,47.83,47.83,0,0,1,11.7-21.5,45.92,45.92,0,0,1,9.4-7.7,47.49,47.49,0,0,1,11.3-5,46.73,46.73,0,0,1,12.9-1.8,40.49,40.49,0,0,1,12,1.7,47.57,47.57,0,0,1,10.9,4.6,49.94,49.94,0,0,1,9.4,7.2,45.08,45.08,0,0,1,12,19.7,41.75,41.75,0,0,1,1.7,11.6c0,2.6,0,4.7-.1,6.3a6.67,6.67,0,0,1-1.2,3.9,5.45,5.45,0,0,1-3.5,2,42.53,42.53,0,0,1-7.1.6h-53.7a19,19,0,0,0,3,8,18.75,18.75,0,0,0,5.3,5.2,18.51,18.51,0,0,0,6.3,2.7,27.36,27.36,0,0,0,6.4.8,25.05,25.05,0,0,0,5.5-.6,49.45,49.45,0,0,0,5.5-1.5,30.62,30.62,0,0,0,4.9-2.2,15.17,15.17,0,0,0,3.5-2.6,11,11,0,0,1,2.1-1.4,4.07,4.07,0,0,1,1.8-.5,3.72,3.72,0,0,1,2,.7,21.1,21.1,0,0,1,2.3,1.9l7.9,9a5.24,5.24,0,0,1,1,1.8,8.75,8.75,0,0,1,.2,1.6,5,5,0,0,1-.8,2.6A4.69,4.69,0,0,1,387.22,127.2ZM351.42,65a13.42,13.42,0,0,0-5.6,1.2,20.47,20.47,0,0,0-5.1,3.1,29.4,29.4,0,0,0-7.4,9.4h38.1a47.21,47.21,0,0,0-3.3-5.3,21.4,21.4,0,0,0-4.2-4.3,15.69,15.69,0,0,0-5.4-2.9A20,20,0,0,0,351.42,65Z"/><path class="cls-3" d="M393.52,31a3.1,3.1,0,0,1,1-2.4,3.84,3.84,0,0,1,2.5-.9h80.3a4.07,4.07,0,0,1,2.4.8,3.34,3.34,0,0,1,1.2,2.5V49.5a4.32,4.32,0,0,1-.9,2.6,3,3,0,0,1-2.6,1.2h-25.7V135a3.49,3.49,0,0,1-1,2.4,3.41,3.41,0,0,1-2.5,1.1h-21.8a3.69,3.69,0,0,1-2.4-1,3.25,3.25,0,0,1-1.1-2.5V53.3H397a3.47,3.47,0,0,1-2.5-1,3.74,3.74,0,0,1-1-2.8Z"/><path class="cls-3" d="M580.82,137.3a5.64,5.64,0,0,1-2,1.1,13.55,13.55,0,0,1-2,.2h-11.3a4.56,4.56,0,0,1-2.3-.5,7,7,0,0,1-1.7-1.3,7.24,7.24,0,0,1-1.1-1.9,18,18,0,0,1-.8-2.1l-1.6-7.3a19.75,19.75,0,0,1-3.7,4.9,27.67,27.67,0,0,1-6.5,4.7,40.9,40.9,0,0,1-19.7,5,32.94,32.94,0,0,1-15.1-3.3,32.22,32.22,0,0,1-11.1-9,38.57,38.57,0,0,1-6.8-13.2,55.18,55.18,0,0,1-2.3-16.2V49.5a6.56,6.56,0,0,1,1.2-4.3,4.76,4.76,0,0,1,3.9-1.4h17.2c2.1,0,3.6.4,4.4,1.1s1.2,2.1,1.2,4.2V97.7a15.8,15.8,0,0,0,1.2,6.1,17.19,17.19,0,0,0,3.3,5.1,15.66,15.66,0,0,0,4.9,3.5,15.3,15.3,0,0,0,5.9,1.3,19,19,0,0,0,5.8-.9,17.34,17.34,0,0,0,5.8-2.8,17.56,17.56,0,0,0,4.5-4.9,14,14,0,0,0,1.8-7.2V49.3a7,7,0,0,1,.5-2.5,3.58,3.58,0,0,1,1.5-1.9,6.39,6.39,0,0,1,1.9-.8,6.8,6.8,0,0,1,2-.2h16.9c2.1,0,3.7.5,4.6,1.6a6,6,0,0,1,1.4,4.2V133a5.83,5.83,0,0,1-.6,2.6,4.69,4.69,0,0,1-1.8,1.9Z"/><path class="cls-3" d="M665.22,129.2a44,44,0,0,1-4.6,4,40.4,40.4,0,0,1-5.6,3.5,30.12,30.12,0,0,1-6.5,2.5,26.22,26.22,0,0,1-7.3,1,44.72,44.72,0,0,1-18.7-3.8,44,44,0,0,1-14.7-10.5,47.35,47.35,0,0,1-9.6-15.6,55.43,55.43,0,0,1,0-38.5,49.73,49.73,0,0,1,9.6-15.5,43.72,43.72,0,0,1,14.7-10.4,46.34,46.34,0,0,1,18.7-3.8,38.08,38.08,0,0,1,7.5.7A25.59,25.59,0,0,1,660,48.1a34.43,34.43,0,0,1,4.4,4.1v-31a5.85,5.85,0,0,1,1.5-4,5.09,5.09,0,0,1,4.4-1.6h16.8a6.47,6.47,0,0,1,2,.4,8.17,8.17,0,0,1,2,1.2,6.55,6.55,0,0,1,1.5,1.8,4.65,4.65,0,0,1,.6,2.3V132.8q0,5.7-6,5.7h-14.6a5.87,5.87,0,0,1-2.3-.4,3.6,3.6,0,0,1-1.4-1.1,5.24,5.24,0,0,1-1-1.8c-.3-.7-.7-1.6-1.1-2.5Zm-43.6-38a28.61,28.61,0,0,0,1.5,9.2,21.4,21.4,0,0,0,4.4,7.4,21,21,0,0,0,6.8,5,20.72,20.72,0,0,0,8.8,1.8,25.22,25.22,0,0,0,9-1.7,23.44,23.44,0,0,0,7.3-4.7,24,24,0,0,0,7.2-15.9v-1a23.82,23.82,0,0,0-1.8-9.1,25.71,25.71,0,0,0-5-7.6A23.16,23.16,0,0,0,643,67.5a20.11,20.11,0,0,0-15.6,7.1,24,24,0,0,0-4.4,7.6,30.23,30.23,0,0,0-1.4,9Z"/><path class="cls-3" d="M707.12,91.2a49.82,49.82,0,0,1,6.7-25,48.51,48.51,0,0,1,7.6-9.8,49.14,49.14,0,0,1,9.9-7.6,50.67,50.67,0,0,1,24.9-6.6,48.61,48.61,0,0,1,34.6,14.1,49.14,49.14,0,0,1,10.4,15.5A47.49,47.49,0,0,1,805,91.1a49.42,49.42,0,0,1-1.8,13.2,50.73,50.73,0,0,1-4.9,11.8,48.56,48.56,0,0,1-42.2,24.1,49.31,49.31,0,0,1-13.2-1.7,48,48,0,0,1-29.2-22.4,49,49,0,0,1-4.9-11.8A47.57,47.57,0,0,1,707.12,91.2Zm27.2,0a28.61,28.61,0,0,0,1.5,9.2,20.86,20.86,0,0,0,11.1,12.4,19.88,19.88,0,0,0,9,1.8,22.35,22.35,0,0,0,8.8-1.8,20.26,20.26,0,0,0,6.6-5,21.82,21.82,0,0,0,4.2-7.4,30.09,30.09,0,0,0,0-18.3,21.78,21.78,0,0,0-4.2-7.6,19.44,19.44,0,0,0-15.4-7.1,20,20,0,0,0-9,1.9,20.26,20.26,0,0,0-6.8,5.2,22,22,0,0,0-4.3,7.6A28,28,0,0,0,734.32,91.2Z"/><path class="cls-2" d="M610,200.6a1,1,0,0,1-.9,1.2H606c-.8,0-1.3-.4-1.3-1.2v-2.8a1.61,1.61,0,0,1,.3-.9,1.22,1.22,0,0,1,.9-.3h2.8a1.4,1.4,0,0,1,.9.3,1.22,1.22,0,0,1,.3.9Z"/><path class="cls-2" d="M616.52,184.5a17.56,17.56,0,0,1,5.3-12.7,17,17,0,0,1,5.7-3.9,16.71,16.71,0,0,1,6.9-1.4,17.67,17.67,0,0,1,9,2.5,20,20,0,0,1,3.7,2.8,17.15,17.15,0,0,1,2.8,3.7,16.32,16.32,0,0,1,1.8,4.3,18,18,0,0,1-1.8,13.8,16.55,16.55,0,0,1-2.8,3.6,17.15,17.15,0,0,1-3.7,2.8,17.51,17.51,0,0,1-13.8,1.8,16.32,16.32,0,0,1-4.3-1.8,18.4,18.4,0,0,1-6.5-6.5,16.32,16.32,0,0,1-1.8-4.3A35.59,35.59,0,0,1,616.52,184.5Zm5.5,0a11.62,11.62,0,0,0,1,4.9,12.92,12.92,0,0,0,6.7,6.9,11.62,11.62,0,0,0,4.9,1,11.17,11.17,0,0,0,4.8-1,12.56,12.56,0,0,0,4-2.8,16.19,16.19,0,0,0,2.7-4.1,12.8,12.8,0,0,0,0-9.8,12.18,12.18,0,0,0-2.7-4.1,12.84,12.84,0,0,0-4-2.9,11.24,11.24,0,0,0-9.7,0,12.84,12.84,0,0,0-4,2.9,13.9,13.9,0,0,0-2.7,4.1,11.62,11.62,0,0,0-1,4.9Z"/><path class="cls-2" d="M663.92,171.6a15.37,15.37,0,0,1,1.7-1.9,11.22,11.22,0,0,1,2.2-1.6,11.07,11.07,0,0,1,2.7-1.2,9.35,9.35,0,0,1,3.3-.4,12.43,12.43,0,0,1,6,1.2,11.3,11.3,0,0,1,4.3,3.2,12.83,12.83,0,0,1,2.6,4.7,19,19,0,0,1,.9,5.8V200a1.87,1.87,0,0,1-.5,1.4,1.85,1.85,0,0,1-1.2.5h-2c-.7,0-1.1-.1-1.3-.4a3.19,3.19,0,0,1-.3-1.4V181.4a13.32,13.32,0,0,0-.5-3.4,8.92,8.92,0,0,0-1.5-3.1,8.5,8.5,0,0,0-2.7-2.3,9.9,9.9,0,0,0-4.2-.9,8.66,8.66,0,0,0-3.2.6,9,9,0,0,0-3,1.7,10,10,0,0,0-2.3,2.7,7.79,7.79,0,0,0-.9,3.7v20.3a1,1,0,0,1-.9,1.2H660c-.9,0-1.3-.4-1.3-1.2V168.3a1.61,1.61,0,0,1,.3-.9,1.14,1.14,0,0,1,.8-.3h2.8a1.09,1.09,0,0,1,.9.4.92.92,0,0,1,.3.9Z"/><path class="cls-2" d="M698.82,200.6a1,1,0,0,1-.9,1.2h-3.1c-.9,0-1.3-.4-1.3-1.2V157.9a1.09,1.09,0,0,1,.4-.9,1.14,1.14,0,0,1,.8-.3h2.8a1.09,1.09,0,0,1,.9.4.92.92,0,0,1,.3.9Z"/><path class="cls-2" d="M711.92,160.7a1,1,0,0,1-.9,1.2h-3.1c-.9,0-1.3-.4-1.3-1.2v-2.8a1.09,1.09,0,0,1,.4-.9,1.14,1.14,0,0,1,.8-.3h2.8a1.4,1.4,0,0,1,.9.3.92.92,0,0,1,.3.9Zm0,39.9a1,1,0,0,1-.9,1.2h-3.1c-.9,0-1.3-.4-1.3-1.2V168.2a1.09,1.09,0,0,1,.4-.9,1.14,1.14,0,0,1,.8-.3h2.8a1.09,1.09,0,0,1,.9.4,1.22,1.22,0,0,1,.3.9Z"/><path class="cls-2" d="M725,171.6a15.37,15.37,0,0,1,1.7-1.9,11.22,11.22,0,0,1,2.2-1.6,11.07,11.07,0,0,1,2.7-1.2,9.35,9.35,0,0,1,3.3-.4,12.43,12.43,0,0,1,6,1.2,11.3,11.3,0,0,1,4.3,3.2,12.83,12.83,0,0,1,2.6,4.7,19,19,0,0,1,.9,5.8V200a1.87,1.87,0,0,1-.5,1.4,1.85,1.85,0,0,1-1.2.5h-2c-.7,0-1.1-.1-1.3-.4a3.19,3.19,0,0,1-.3-1.4V181.4a13.32,13.32,0,0,0-.5-3.4,8.92,8.92,0,0,0-1.5-3.1,8.5,8.5,0,0,0-2.7-2.3,9.9,9.9,0,0,0-4.2-.9,8.66,8.66,0,0,0-3.2.6,9,9,0,0,0-3,1.7,10,10,0,0,0-2.3,2.7,7.79,7.79,0,0,0-.9,3.7v20.3a1,1,0,0,1-.9,1.2H721c-.9,0-1.3-.4-1.3-1.2V168.3a1.61,1.61,0,0,1,.3-.9,1.14,1.14,0,0,1,.8-.3h2.9a1.3,1.3,0,0,1,1.3,1.2v3.3Z"/><path class="cls-2" d="M779.42,193.9c.2-.1.3-.3.5-.4a1,1,0,0,1,1.3.2l.1.1.9,1.2.6.7.3.4c.1.1.2.2.2.3a.6.6,0,0,1,.1.4,1.07,1.07,0,0,1-.2.6,3,3,0,0,1-.8.8,22,22,0,0,1-2.5,1.7,22.45,22.45,0,0,1-2.7,1.3,17.1,17.1,0,0,1-3,.9,16.65,16.65,0,0,1-8-.4,17.85,17.85,0,0,1-4.3-1.8,18.4,18.4,0,0,1-6.5-6.5,20.8,20.8,0,0,1-1.9-4.3,18.54,18.54,0,0,1-.7-4.8,19.73,19.73,0,0,1,.6-4.8,16.32,16.32,0,0,1,1.8-4.3,16.55,16.55,0,0,1,2.8-3.6,19.35,19.35,0,0,1,3.6-2.8,17.85,17.85,0,0,1,4.3-1.8,20.74,20.74,0,0,1,5-.6,19.15,19.15,0,0,1,4.1.5,20.32,20.32,0,0,1,3.9,1.4,18.6,18.6,0,0,1,3.5,2.2,16.43,16.43,0,0,1,2.9,3,15,15,0,0,1,2.6,5.4,23.26,23.26,0,0,1,.8,6.9c0,.9-.4,1.3-1.2,1.3h-28.9a15.86,15.86,0,0,0,1.6,4.1,14.32,14.32,0,0,0,2.8,3.2,16.54,16.54,0,0,0,3.6,2.2,11.5,11.5,0,0,0,4.1.8,12.41,12.41,0,0,0,2.7-.3,8.26,8.26,0,0,0,2.2-.8,10.81,10.81,0,0,0,1.8-1.1,7.69,7.69,0,0,0,2-1.3Zm-15-20.3a13.49,13.49,0,0,0-5.7,8.2h24.8a11.08,11.08,0,0,0-1.4-4.1,12.18,12.18,0,0,0-2.8-3.2,13.26,13.26,0,0,0-8.1-2.8,13.45,13.45,0,0,0-3.5.5,9.68,9.68,0,0,0-3.3,1.4Z"/></g></g></svg>