<?xml version="1.0" encoding="utf-8"?>
<!-- Generator: Adobe Illustrator 25.2.1, SVG Export Plug-In . SVG Version: 6.00 Build 0)  -->
<svg version="1.1" id="Camada_1" xmlns:xodm="http://www.corel.com/coreldraw/odm/2003"
	 xmlns="http://www.w3.org/2000/svg" xmlns:xlink="http://www.w3.org/1999/xlink" x="0px" y="0px" viewBox="0 0 4584 4584"
	 style="enable-background:new 0 0 4584 4584;" xml:space="preserve">
<style type="text/css">
	.st0{fill:#302640;}
	.st1{opacity:0.42;}
	.st2{opacity:0.33;}
	.st3{opacity:0.33;fill:#302640;}
	.st4{fill:#FF8961;}
	.st5{fill:#7C80DE;}
</style>
<path class="st0" d="M214.9,4521.4h4154.2c41.8,0,79.9-17.1,107.5-44.7s44.7-65.7,44.7-107.5V214.9c0-41.8-17.1-79.9-44.7-107.5
	s-65.7-44.7-107.5-44.7H214.9c-41.8,0-79.9,17.1-107.5,44.7s-44.7,65.7-44.7,107.5v4154.2c0,41.8,17.1,79.9,44.7,107.5
	S173.1,4521.4,214.9,4521.4L214.9,4521.4z M4369.1,4584H214.9c-59.1,0-112.9-24.2-151.8-63.1C24.2,4482,0,4428.2,0,4369.1V214.9
	C0,155.8,24.2,102,63.1,63.1S155.8,0,214.9,0h4154.2c59.1,0,112.9,24.2,151.8,63.1c38.9,38.9,63.1,92.7,63.1,151.8v4154.2
	c0,59.1-24.2,112.9-63.1,151.8C4482,4559.8,4428.2,4584,4369.1,4584z"/>
<g class="st1">
	<g class="st2">
		<g>
			<rect x="1949.5" y="305.3" class="st0" width="137" height="137"/>
		</g>
	</g>
	<g class="st2">
		<g>
			<rect x="2223.5" y="305.3" class="st0" width="137" height="137"/>
		</g>
	</g>
	<g class="st2">
		<g>
			<rect x="2360.5" y="305.3" class="st0" width="137" height="137"/>
		</g>
	</g>
	<g class="st2">
		<g>
			<rect x="2771.5" y="305.3" class="st0" width="137" height="137"/>
		</g>
	</g>
	<g class="st2">
		<g>
			<rect x="2908.5" y="305.3" class="st0" width="137" height="137"/>
		</g>
	</g>
	<g class="st2">
		<g>
			<rect x="1949.5" y="442.4" class="st0" width="137" height="137"/>
		</g>
	</g>
	<g class="st2">
		<g>
			<rect x="2223.5" y="442.4" class="st0" width="137" height="137"/>
		</g>
	</g>
	<g class="st2">
		<g>
			<rect x="2360.5" y="442.4" class="st0" width="137" height="137"/>
		</g>
	</g>
	<g class="st2">
		<g>
			<rect x="2634.5" y="442.4" class="st0" width="137" height="137"/>
		</g>
	</g>
	<g class="st2">
		<g>
			<rect x="3045.6" y="442.4" class="st0" width="137" height="137"/>
		</g>
	</g>
	<g class="st2">
		<g>
			<rect x="1401.4" y="579.4" class="st0" width="137" height="137"/>
		</g>
	</g>
	<g class="st2">
		<g>
			<rect x="1538.4" y="579.4" class="st0" width="137" height="137"/>
		</g>
	</g>
	<g class="st2">
		<g>
			<rect x="1675.5" y="579.4" class="st0" width="137" height="137"/>
		</g>
	</g>
	<g class="st2">
		<g>
			<rect x="1949.5" y="579.4" class="st0" width="137" height="137"/>
		</g>
	</g>
	<g class="st2">
		<g>
			<rect x="2086.5" y="579.4" class="st0" width="137" height="137"/>
		</g>
	</g>
	<g class="st2">
		<g>
			<rect x="2360.5" y="579.4" class="st0" width="137" height="137"/>
		</g>
	</g>
	<g class="st2">
		<g>
			<rect x="2771.5" y="579.4" class="st0" width="137" height="137"/>
		</g>
	</g>
	<g class="st2">
		<g>
			<rect x="3045.6" y="579.4" class="st0" width="137" height="137"/>
		</g>
	</g>
	<g class="st2">
		<g>
			<rect x="1401.4" y="716.4" class="st0" width="137" height="137"/>
		</g>
	</g>
	<g class="st2">
		<g>
			<rect x="1949.5" y="716.4" class="st0" width="137" height="137"/>
		</g>
	</g>
	<g class="st2">
		<g>
			<rect x="2086.5" y="716.4" class="st0" width="137" height="137"/>
		</g>
	</g>
	<g class="st2">
		<g>
			<rect x="2223.5" y="716.4" class="st0" width="137" height="137"/>
		</g>
	</g>
	<g class="st2">
		<g>
			<rect x="2497.5" y="716.4" class="st0" width="137" height="137"/>
		</g>
	</g>
	<g class="st2">
		<g>
			<rect x="2634.5" y="716.4" class="st0" width="137" height="137"/>
		</g>
	</g>
	<g class="st2">
		<g>
			<rect x="2908.5" y="716.4" class="st0" width="137" height="137"/>
		</g>
	</g>
	<g class="st2">
		<g>
			<rect x="3045.6" y="716.4" class="st0" width="137" height="137"/>
		</g>
	</g>
	<g class="st2">
		<g>
			<rect x="1538.4" y="853.4" class="st0" width="137" height="137"/>
		</g>
	</g>
	<g class="st2">
		<g>
			<rect x="1675.5" y="853.4" class="st0" width="137" height="137"/>
		</g>
	</g>
	<g class="st2">
		<g>
			<rect x="1812.5" y="853.4" class="st0" width="137" height="137"/>
		</g>
	</g>
	<g class="st2">
		<g>
			<rect x="1949.5" y="853.4" class="st0" width="137" height="137"/>
		</g>
	</g>
	<g class="st2">
		<g>
			<rect x="2086.5" y="853.4" class="st0" width="137" height="137"/>
		</g>
	</g>
	<g class="st2">
		<g>
			<rect x="2223.5" y="853.4" class="st0" width="137" height="137"/>
		</g>
	</g>
	<g class="st2">
		<g>
			<rect x="2360.5" y="853.4" class="st0" width="137" height="137"/>
		</g>
	</g>
	<g class="st2">
		<g>
			<rect x="2634.5" y="853.4" class="st0" width="137" height="137"/>
		</g>
	</g>
	<g class="st2">
		<g>
			<rect x="2771.5" y="853.4" class="st0" width="137" height="137"/>
		</g>
	</g>
	<g class="st2">
		<g>
			<rect x="2908.5" y="853.4" class="st0" width="137" height="137"/>
		</g>
	</g>
	<g class="st2">
		<g>
			<rect x="3045.6" y="853.4" class="st0" width="137" height="137"/>
		</g>
	</g>
	<g class="st2">
		<g>
			<rect x="2634.5" y="990.4" class="st0" width="137" height="137"/>
		</g>
	</g>
	<g class="st2">
		<g>
			<rect x="2771.5" y="990.4" class="st0" width="137" height="137"/>
		</g>
	</g>
	<g class="st2">
		<g>
			<rect x="3045.6" y="990.4" class="st0" width="137" height="137"/>
		</g>
	</g>
	<g class="st2">
		<g>
			<rect x="1401.4" y="1127.4" class="st0" width="137" height="137"/>
		</g>
	</g>
	<g class="st2">
		<g>
			<rect x="1675.5" y="1127.4" class="st0" width="137" height="137"/>
		</g>
	</g>
	<g class="st2">
		<g>
			<rect x="1949.5" y="1127.4" class="st0" width="137" height="137"/>
		</g>
	</g>
	<g class="st2">
		<g>
			<rect x="2223.5" y="1127.4" class="st0" width="137" height="137"/>
		</g>
	</g>
	<g class="st2">
		<g>
			<rect x="2497.5" y="1127.4" class="st0" width="137" height="137"/>
		</g>
	</g>
	<g class="st2">
		<g>
			<rect x="2771.5" y="1127.4" class="st0" width="137" height="137"/>
		</g>
	</g>
	<g class="st2">
		<g>
			<rect x="3045.6" y="1127.4" class="st0" width="137" height="137"/>
		</g>
	</g>
	<g class="st2">
		<g>
			<rect x="1675.5" y="1264.4" class="st0" width="137" height="137"/>
		</g>
	</g>
	<g class="st2">
		<g>
			<rect x="1812.5" y="1264.4" class="st0" width="137" height="137"/>
		</g>
	</g>
	<g class="st2">
		<g>
			<rect x="1949.5" y="1264.4" class="st0" width="137" height="137"/>
		</g>
	</g>
	<g class="st2">
		<g>
			<rect x="2908.5" y="1264.4" class="st0" width="137" height="137"/>
		</g>
	</g>
	<g class="st2">
		<g>
			<rect x="3045.6" y="1264.4" class="st0" width="137" height="137"/>
		</g>
	</g>
	<g class="st2">
		<g>
			<rect x="716.4" y="1401.4" class="st0" width="137" height="137"/>
		</g>
	</g>
	<g class="st2">
		<g>
			<rect x="853.4" y="1401.4" class="st0" width="137" height="137"/>
		</g>
	</g>
	<g class="st2">
		<g>
			<rect x="1127.4" y="1401.4" class="st0" width="137" height="137"/>
		</g>
	</g>
	<g class="st2">
		<g>
			<rect x="1264.4" y="1401.4" class="st0" width="137" height="137"/>
		</g>
	</g>
	<g class="st2">
		<g>
			<rect x="1812.5" y="1401.4" class="st0" width="137" height="137"/>
		</g>
	</g>
	<g class="st2">
		<g>
			<rect x="1949.5" y="1401.4" class="st0" width="137" height="137"/>
		</g>
	</g>
	<g class="st2">
		<g>
			<rect x="2086.5" y="1401.4" class="st0" width="137" height="137"/>
		</g>
	</g>
	<g class="st2">
		<g>
			<rect x="2223.5" y="1401.4" class="st0" width="137" height="137"/>
		</g>
	</g>
	<g class="st2">
		<g>
			<rect x="2497.5" y="1401.4" class="st0" width="137" height="137"/>
		</g>
	</g>
	<g class="st2">
		<g>
			<rect x="2771.5" y="1401.4" class="st0" width="137" height="137"/>
		</g>
	</g>
	<g class="st2">
		<g>
			<rect x="2908.5" y="1401.4" class="st0" width="137" height="137"/>
		</g>
	</g>
	<g class="st2">
		<g>
			<rect x="3730.6" y="1401.4" class="st0" width="137" height="137"/>
		</g>
	</g>
	<g class="st2">
		<g>
			<rect x="3867.6" y="1401.4" class="st0" width="137" height="137"/>
		</g>
	</g>
	<g class="st2">
		<g>
			<rect x="305.3" y="1538.4" class="st0" width="137" height="137"/>
		</g>
	</g>
	<g class="st2">
		<g>
			<rect x="990.4" y="1538.4" class="st0" width="137" height="137"/>
		</g>
	</g>
	<g class="st2">
		<g>
			<rect x="1264.4" y="1538.4" class="st0" width="137" height="137"/>
		</g>
	</g>
	<g class="st2">
		<g>
			<rect x="1401.4" y="1538.4" class="st0" width="137" height="137"/>
		</g>
	</g>
	<g class="st2">
		<g>
			<rect x="1949.5" y="1538.4" class="st0" width="137" height="137"/>
		</g>
	</g>
	<g class="st2">
		<g>
			<rect x="2086.5" y="1538.4" class="st0" width="137" height="137"/>
		</g>
	</g>
	<g class="st2">
		<g>
			<rect x="2634.5" y="1538.4" class="st0" width="137" height="137"/>
		</g>
	</g>
	<g class="st2">
		<g>
			<rect x="3045.6" y="1538.4" class="st0" width="137" height="137"/>
		</g>
	</g>
	<g class="st2">
		<g>
			<rect x="3456.6" y="1538.4" class="st0" width="137" height="137"/>
		</g>
	</g>
	<g class="st2">
		<g>
			<rect x="3593.6" y="1538.4" class="st0" width="137" height="137"/>
		</g>
	</g>
	<g class="st2">
		<g>
			<rect x="3730.6" y="1538.4" class="st0" width="137" height="137"/>
		</g>
	</g>
	<g class="st2">
		<g>
			<rect x="4004.6" y="1538.4" class="st0" width="137" height="137"/>
		</g>
	</g>
	<g class="st2">
		<g>
			<rect x="305.3" y="1675.5" class="st0" width="137" height="137"/>
		</g>
	</g>
	<g class="st2">
		<g>
			<rect x="442.4" y="1675.5" class="st0" width="137" height="137"/>
		</g>
	</g>
	<g class="st2">
		<g>
			<rect x="579.4" y="1675.5" class="st0" width="137" height="137"/>
		</g>
	</g>
	<g class="st2">
		<g>
			<rect x="853.4" y="1675.5" class="st0" width="137" height="137"/>
		</g>
	</g>
	<g class="st2">
		<g>
			<rect x="1127.4" y="1675.5" class="st0" width="137" height="137"/>
		</g>
	</g>
	<g class="st2">
		<g>
			<rect x="3182.6" y="1675.5" class="st0" width="137" height="137"/>
		</g>
	</g>
	<g class="st2">
		<g>
			<rect x="3319.6" y="1675.5" class="st0" width="137" height="137"/>
		</g>
	</g>
	<g class="st2">
		<g>
			<rect x="305.3" y="1812.5" class="st0" width="137" height="137"/>
		</g>
	</g>
	<g class="st2">
		<g>
			<rect x="442.4" y="1812.5" class="st0" width="137" height="137"/>
		</g>
	</g>
	<g class="st2">
		<g>
			<rect x="853.4" y="1812.5" class="st0" width="137" height="137"/>
		</g>
	</g>
	<g class="st2">
		<g>
			<rect x="990.4" y="1812.5" class="st0" width="137" height="137"/>
		</g>
	</g>
	<g class="st2">
		<g>
			<rect x="1264.4" y="1812.5" class="st0" width="137" height="137"/>
		</g>
	</g>
	<g class="st2">
		<g>
			<rect x="1538.4" y="1812.5" class="st0" width="137" height="137"/>
		</g>
	</g>
	<g class="st2">
		<g>
			<rect x="3045.6" y="1812.5" class="st0" width="137" height="137"/>
		</g>
	</g>
	<g class="st2">
		<g>
			<rect x="3456.6" y="1812.5" class="st0" width="137" height="137"/>
		</g>
	</g>
	<g class="st2">
		<g>
			<rect x="3593.6" y="1812.5" class="st0" width="137" height="137"/>
		</g>
	</g>
	<g class="st2">
		<g>
			<rect x="3730.6" y="1812.5" class="st0" width="137" height="137"/>
		</g>
	</g>
	<g class="st2">
		<g>
			<rect x="4141.6" y="1812.5" class="st0" width="137" height="137"/>
		</g>
	</g>
	<g class="st2">
		<g>
			<rect x="305.3" y="1949.5" class="st0" width="137" height="137"/>
		</g>
	</g>
	<g class="st2">
		<g>
			<rect x="990.4" y="1949.5" class="st0" width="137" height="137"/>
		</g>
	</g>
	<g class="st2">
		<g>
			<rect x="1127.4" y="1949.5" class="st0" width="137" height="137"/>
		</g>
	</g>
	<g class="st2">
		<g>
			<rect x="1264.4" y="1949.5" class="st0" width="137" height="137"/>
		</g>
	</g>
	<g class="st2">
		<g>
			<rect x="1401.4" y="1949.5" class="st0" width="137" height="137"/>
		</g>
	</g>
	<g class="st2">
		<g>
			<rect x="2908.5" y="1949.5" class="st0" width="137" height="137"/>
		</g>
	</g>
	<g class="st2">
		<g>
			<rect x="3045.6" y="1949.5" class="st0" width="137" height="137"/>
		</g>
	</g>
	<g class="st2">
		<g>
			<rect x="3182.6" y="1949.5" class="st0" width="137" height="137"/>
		</g>
	</g>
	<g class="st2">
		<g>
			<rect x="3319.6" y="1949.5" class="st0" width="137" height="137"/>
		</g>
	</g>
	<g class="st2">
		<g>
			<rect x="3730.6" y="1949.5" class="st0" width="137" height="137"/>
		</g>
	</g>
	<g class="st2">
		<g>
			<rect x="4004.6" y="1949.5" class="st0" width="137" height="137"/>
		</g>
	</g>
	<g class="st2">
		<g>
			<rect x="305.3" y="2086.5" class="st0" width="137" height="137"/>
		</g>
	</g>
	<g class="st2">
		<g>
			<rect x="716.4" y="2086.5" class="st0" width="137" height="137"/>
		</g>
	</g>
	<g class="st2">
		<g>
			<rect x="853.4" y="2086.5" class="st0" width="137" height="137"/>
		</g>
	</g>
	<g class="st2">
		<g>
			<rect x="990.4" y="2086.5" class="st0" width="137" height="137"/>
		</g>
	</g>
	<g class="st2">
		<g>
			<rect x="1538.4" y="2086.5" class="st0" width="137" height="137"/>
		</g>
	</g>
	<g class="st2">
		<g>
			<rect x="3319.6" y="2086.5" class="st0" width="137" height="137"/>
		</g>
	</g>
	<g class="st2">
		<g>
			<rect x="3593.6" y="2086.5" class="st0" width="137" height="137"/>
		</g>
	</g>
	<g class="st2">
		<g>
			<rect x="3867.6" y="2086.5" class="st0" width="137" height="137"/>
		</g>
	</g>
	<g class="st2">
		<g>
			<rect x="4141.6" y="2086.5" class="st0" width="137" height="137"/>
		</g>
	</g>
	<g class="st2">
		<g>
			<rect x="305.3" y="2223.5" class="st0" width="137" height="137"/>
		</g>
	</g>
	<g class="st2">
		<g>
			<rect x="442.4" y="2223.5" class="st0" width="137" height="137"/>
		</g>
	</g>
	<g class="st2">
		<g>
			<rect x="716.4" y="2223.5" class="st0" width="137" height="137"/>
		</g>
	</g>
	<g class="st2">
		<g>
			<rect x="990.4" y="2223.5" class="st0" width="137" height="137"/>
		</g>
	</g>
	<g class="st2">
		<g>
			<rect x="1127.4" y="2223.5" class="st0" width="137" height="137"/>
		</g>
	</g>
	<g class="st2">
		<g>
			<rect x="1401.4" y="2223.5" class="st0" width="137" height="137"/>
		</g>
	</g>
	<g class="st2">
		<g>
			<rect x="1538.4" y="2223.5" class="st0" width="137" height="137"/>
		</g>
	</g>
	<g class="st2">
		<g>
			<rect x="2908.5" y="2223.5" class="st0" width="137" height="137"/>
		</g>
	</g>
	<g class="st2">
		<g>
			<rect x="3045.6" y="2223.5" class="st0" width="137" height="137"/>
		</g>
	</g>
	<g class="st2">
		<g>
			<rect x="3182.6" y="2223.5" class="st0" width="137" height="137"/>
		</g>
	</g>
	<g class="st2">
		<g>
			<rect x="3319.6" y="2223.5" class="st0" width="137" height="137"/>
		</g>
	</g>
	<g class="st2">
		<g>
			<rect x="3456.6" y="2223.5" class="st0" width="137" height="137"/>
		</g>
	</g>
	<g class="st2">
		<g>
			<rect x="3730.6" y="2223.5" class="st0" width="137" height="137"/>
		</g>
	</g>
	<g class="st2">
		<g>
			<rect x="4141.6" y="2223.5" class="st0" width="137" height="137"/>
		</g>
	</g>
	<g class="st2">
		<g>
			<rect x="305.3" y="2360.5" class="st0" width="137" height="137"/>
		</g>
	</g>
	<g class="st2">
		<g>
			<rect x="442.4" y="2360.5" class="st0" width="137" height="137"/>
		</g>
	</g>
	<g class="st2">
		<g>
			<rect x="716.4" y="2360.5" class="st0" width="137" height="137"/>
		</g>
	</g>
	<g class="st2">
		<g>
			<rect x="853.4" y="2360.5" class="st0" width="137" height="137"/>
		</g>
	</g>
	<g class="st2">
		<g>
			<rect x="1264.4" y="2360.5" class="st0" width="137" height="137"/>
		</g>
	</g>
	<g class="st2">
		<g>
			<rect x="2908.5" y="2360.5" class="st0" width="137" height="137"/>
		</g>
	</g>
	<g class="st2">
		<g>
			<rect x="3593.6" y="2360.5" class="st0" width="137" height="137"/>
		</g>
	</g>
	<g class="st2">
		<g>
			<rect x="3730.6" y="2360.5" class="st0" width="137" height="137"/>
		</g>
	</g>
	<g class="st2">
		<g>
			<rect x="3867.6" y="2360.5" class="st0" width="137" height="137"/>
		</g>
	</g>
	<g class="st2">
		<g>
			<rect x="4004.6" y="2360.5" class="st0" width="137" height="137"/>
		</g>
	</g>
	<g class="st2">
		<g>
			<rect x="4141.6" y="2360.5" class="st0" width="137" height="137"/>
		</g>
	</g>
	<g class="st2">
		<g>
			<rect x="305.3" y="2497.5" class="st0" width="137" height="137"/>
		</g>
	</g>
	<g class="st2">
		<g>
			<rect x="442.4" y="2497.5" class="st0" width="137" height="137"/>
		</g>
	</g>
	<g class="st2">
		<g>
			<rect x="990.4" y="2497.5" class="st0" width="137" height="137"/>
		</g>
	</g>
	<g class="st2">
		<g>
			<rect x="1127.4" y="2497.5" class="st0" width="137" height="137"/>
		</g>
	</g>
	<g class="st2">
		<g>
			<rect x="1538.4" y="2497.5" class="st0" width="137" height="137"/>
		</g>
	</g>
	<g class="st2">
		<g>
			<rect x="3730.6" y="2497.5" class="st0" width="137" height="137"/>
		</g>
	</g>
	<g class="st2">
		<g>
			<rect x="4004.6" y="2497.5" class="st0" width="137" height="137"/>
		</g>
	</g>
	<g class="st2">
		<g>
			<rect x="4141.6" y="2497.5" class="st0" width="137" height="137"/>
		</g>
	</g>
	<g class="st2">
		<g>
			<rect x="305.3" y="2634.5" class="st0" width="137" height="137"/>
		</g>
	</g>
	<g class="st2">
		<g>
			<rect x="579.4" y="2634.5" class="st0" width="137" height="137"/>
		</g>
	</g>
	<g class="st2">
		<g>
			<rect x="716.4" y="2634.5" class="st0" width="137" height="137"/>
		</g>
	</g>
	<g class="st2">
		<g>
			<rect x="853.4" y="2634.5" class="st0" width="137" height="137"/>
		</g>
	</g>
	<g class="st2">
		<g>
			<rect x="1264.4" y="2634.5" class="st0" width="137" height="137"/>
		</g>
	</g>
	<g class="st2">
		<g>
			<rect x="2908.5" y="2634.5" class="st0" width="137" height="137"/>
		</g>
	</g>
	<g class="st2">
		<g>
			<rect x="3045.6" y="2634.5" class="st0" width="137" height="137"/>
		</g>
	</g>
	<g class="st2">
		<g>
			<rect x="3593.6" y="2634.5" class="st0" width="137" height="137"/>
		</g>
	</g>
	<g class="st2">
		<g>
			<rect x="3867.6" y="2634.5" class="st0" width="137" height="137"/>
		</g>
	</g>
	<g class="st2">
		<g>
			<rect x="305.3" y="2771.5" class="st0" width="137" height="137"/>
		</g>
	</g>
	<g class="st2">
		<g>
			<rect x="442.4" y="2771.5" class="st0" width="137" height="137"/>
		</g>
	</g>
	<g class="st2">
		<g>
			<rect x="579.4" y="2771.5" class="st0" width="137" height="137"/>
		</g>
	</g>
	<g class="st2">
		<g>
			<rect x="1127.4" y="2771.5" class="st0" width="137" height="137"/>
		</g>
	</g>
	<g class="st2">
		<g>
			<rect x="1264.4" y="2771.5" class="st0" width="137" height="137"/>
		</g>
	</g>
	<g class="st2">
		<g>
			<rect x="2908.5" y="2771.5" class="st0" width="137" height="137"/>
		</g>
	</g>
	<g class="st2">
		<g>
			<rect x="4141.6" y="2771.5" class="st0" width="137" height="137"/>
		</g>
	</g>
	<g class="st2">
		<g>
			<rect x="305.3" y="2908.5" class="st0" width="137" height="137"/>
		</g>
	</g>
	<g class="st2">
		<g>
			<rect x="442.4" y="2908.5" class="st0" width="137" height="137"/>
		</g>
	</g>
	<g class="st2">
		<g>
			<rect x="853.4" y="2908.5" class="st0" width="137" height="137"/>
		</g>
	</g>
	<g class="st2">
		<g>
			<rect x="990.4" y="2908.5" class="st0" width="137" height="137"/>
		</g>
	</g>
	<g class="st2">
		<g>
			<rect x="1538.4" y="2908.5" class="st0" width="137" height="137"/>
		</g>
	</g>
	<g class="st2">
		<g>
			<rect x="1812.5" y="2908.5" class="st0" width="137" height="137"/>
		</g>
	</g>
	<g class="st2">
		<g>
			<rect x="1949.5" y="2908.5" class="st0" width="137" height="137"/>
		</g>
	</g>
	<g class="st2">
		<g>
			<rect x="2086.5" y="2908.5" class="st0" width="137" height="137"/>
		</g>
	</g>
	<g class="st2">
		<g>
			<rect x="2223.5" y="2908.5" class="st0" width="137" height="137"/>
		</g>
	</g>
	<g class="st2">
		<g>
			<rect x="2360.5" y="2908.5" class="st0" width="137" height="137"/>
		</g>
	</g>
	<g class="st2">
		<g>
			<rect x="2497.5" y="2908.5" class="st0" width="137" height="137"/>
		</g>
	</g>
	<g class="st2">
		<g>
			<rect x="2771.5" y="2908.5" class="st0" width="137" height="137"/>
		</g>
	</g>
	<g class="st2">
		<g>
			<rect x="3182.6" y="2908.5" class="st0" width="137" height="137"/>
		</g>
	</g>
	<g class="st2">
		<g>
			<rect x="3319.6" y="2908.5" class="st0" width="137" height="137"/>
		</g>
	</g>
	<g class="st2">
		<g>
			<rect x="3730.6" y="2908.5" class="st0" width="137" height="137"/>
		</g>
	</g>
	<g class="st2">
		<g>
			<rect x="3867.6" y="2908.5" class="st0" width="137" height="137"/>
		</g>
	</g>
	<g class="st2">
		<g>
			<rect x="4141.6" y="2908.5" class="st0" width="137" height="137"/>
		</g>
	</g>
	<g class="st2">
		<g>
			<rect x="305.3" y="3045.6" class="st0" width="137" height="137"/>
		</g>
	</g>
	<g class="st2">
		<g>
			<rect x="442.4" y="3045.6" class="st0" width="137" height="137"/>
		</g>
	</g>
	<g class="st2">
		<g>
			<rect x="579.4" y="3045.6" class="st0" width="137" height="137"/>
		</g>
	</g>
	<g class="st2">
		<g>
			<rect x="716.4" y="3045.6" class="st0" width="137" height="137"/>
		</g>
	</g>
	<g class="st2">
		<g>
			<rect x="853.4" y="3045.6" class="st0" width="137" height="137"/>
		</g>
	</g>
	<g class="st2">
		<g>
			<rect x="990.4" y="3045.6" class="st0" width="137" height="137"/>
		</g>
	</g>
	<g class="st2">
		<g>
			<rect x="1127.4" y="3045.6" class="st0" width="137" height="137"/>
		</g>
	</g>
	<g class="st2">
		<g>
			<rect x="1264.4" y="3045.6" class="st0" width="137" height="137"/>
		</g>
	</g>
	<g class="st2">
		<g>
			<rect x="1538.4" y="3045.6" class="st0" width="137" height="137"/>
		</g>
	</g>
	<g class="st2">
		<g>
			<rect x="2086.5" y="3045.6" class="st0" width="137" height="137"/>
		</g>
	</g>
	<g class="st2">
		<g>
			<rect x="2223.5" y="3045.6" class="st0" width="137" height="137"/>
		</g>
	</g>
	<g class="st2">
		<g>
			<rect x="2360.5" y="3045.6" class="st0" width="137" height="137"/>
		</g>
	</g>
	<g class="st2">
		<g>
			<rect x="2497.5" y="3045.6" class="st0" width="137" height="137"/>
		</g>
	</g>
	<g class="st2">
		<g>
			<rect x="2634.5" y="3045.6" class="st0" width="137" height="137"/>
		</g>
	</g>
	<g class="st2">
		<g>
			<rect x="2908.5" y="3045.6" class="st0" width="137" height="137"/>
		</g>
	</g>
	<g class="st2">
		<g>
			<rect x="3045.6" y="3045.6" class="st0" width="137" height="137"/>
		</g>
	</g>
	<g class="st2">
		<g>
			<rect x="3182.6" y="3045.6" class="st0" width="137" height="137"/>
		</g>
	</g>
	<g class="st2">
		<g>
			<rect x="3319.6" y="3045.6" class="st0" width="137" height="137"/>
		</g>
	</g>
	<g class="st2">
		<g>
			<rect x="3456.6" y="3045.6" class="st0" width="137" height="137"/>
		</g>
	</g>
	<g class="st2">
		<g>
			<rect x="3593.6" y="3045.6" class="st0" width="137" height="137"/>
		</g>
	</g>
	<g class="st2">
		<g>
			<rect x="3730.6" y="3045.6" class="st0" width="137" height="137"/>
		</g>
	</g>
	<g class="st2">
		<g>
			<rect x="3867.6" y="3045.6" class="st0" width="137" height="137"/>
		</g>
	</g>
	<g class="st2">
		<g>
			<rect x="4141.6" y="3045.6" class="st0" width="137" height="137"/>
		</g>
	</g>
	<g class="st2">
		<g>
			<rect x="1401.4" y="3182.6" class="st0" width="137" height="137"/>
		</g>
	</g>
	<g class="st2">
		<g>
			<rect x="1538.4" y="3182.6" class="st0" width="137" height="137"/>
		</g>
	</g>
	<g class="st2">
		<g>
			<rect x="1675.5" y="3182.6" class="st0" width="137" height="137"/>
		</g>
	</g>
	<g class="st2">
		<g>
			<rect x="2360.5" y="3182.6" class="st0" width="137" height="137"/>
		</g>
	</g>
	<g class="st2">
		<g>
			<rect x="2908.5" y="3182.6" class="st0" width="137" height="137"/>
		</g>
	</g>
	<g class="st2">
		<g>
			<rect x="3045.6" y="3182.6" class="st0" width="137" height="137"/>
		</g>
	</g>
	<g class="st2">
		<g>
			<rect x="3593.6" y="3182.6" class="st0" width="137" height="137"/>
		</g>
	</g>
	<g class="st2">
		<g>
			<rect x="3730.6" y="3182.6" class="st0" width="137" height="137"/>
		</g>
	</g>
	<g class="st2">
		<g>
			<rect x="3867.6" y="3182.6" class="st0" width="137" height="137"/>
		</g>
	</g>
	<g class="st2">
		<g>
			<rect x="1401.4" y="3319.6" class="st0" width="137" height="137"/>
		</g>
	</g>
	<g class="st2">
		<g>
			<rect x="1538.4" y="3319.6" class="st0" width="137" height="137"/>
		</g>
	</g>
	<g class="st2">
		<g>
			<rect x="1949.5" y="3319.6" class="st0" width="137" height="137"/>
		</g>
	</g>
	<g class="st2">
		<g>
			<rect x="2086.5" y="3319.6" class="st0" width="137" height="137"/>
		</g>
	</g>
	<g class="st2">
		<g>
			<rect x="2223.5" y="3319.6" class="st0" width="137" height="137"/>
		</g>
	</g>
	<g class="st2">
		<g>
			<rect x="2360.5" y="3319.6" class="st0" width="137" height="137"/>
		</g>
	</g>
	<g class="st2">
		<g>
			<rect x="2497.5" y="3319.6" class="st0" width="137" height="137"/>
		</g>
	</g>
	<g class="st2">
		<g>
			<rect x="2634.5" y="3319.6" class="st0" width="137" height="137"/>
		</g>
	</g>
	<g class="st2">
		<g>
			<rect x="2908.5" y="3319.6" class="st0" width="137" height="137"/>
		</g>
	</g>
	<g class="st2">
		<g>
			<rect x="3045.6" y="3319.6" class="st0" width="137" height="137"/>
		</g>
	</g>
	<g class="st2">
		<g>
			<rect x="3319.6" y="3319.6" class="st0" width="137" height="137"/>
		</g>
	</g>
	<g class="st2">
		<g>
			<rect x="3593.6" y="3319.6" class="st0" width="137" height="137"/>
		</g>
	</g>
	<g class="st2">
		<g>
			<rect x="3867.6" y="3319.6" class="st0" width="137" height="137"/>
		</g>
	</g>
	<g class="st2">
		<g>
			<rect x="1538.4" y="3456.6" class="st0" width="137" height="137"/>
		</g>
	</g>
	<g class="st2">
		<g>
			<rect x="1675.5" y="3456.6" class="st0" width="137" height="137"/>
		</g>
	</g>
	<g class="st2">
		<g>
			<rect x="1949.5" y="3456.6" class="st0" width="137" height="137"/>
		</g>
	</g>
	<g class="st2">
		<g>
			<rect x="2223.5" y="3456.6" class="st0" width="137" height="137"/>
		</g>
	</g>
	<g class="st2">
		<g>
			<rect x="2360.5" y="3456.6" class="st0" width="137" height="137"/>
		</g>
	</g>
	<g class="st2">
		<g>
			<rect x="2908.5" y="3456.6" class="st0" width="137" height="137"/>
		</g>
	</g>
	<g class="st2">
		<g>
			<rect x="3045.6" y="3456.6" class="st0" width="137" height="137"/>
		</g>
	</g>
	<g class="st2">
		<g>
			<rect x="3593.6" y="3456.6" class="st0" width="137" height="137"/>
		</g>
	</g>
	<g class="st2">
		<g>
			<rect x="3730.6" y="3456.6" class="st0" width="137" height="137"/>
		</g>
	</g>
	<g class="st2">
		<g>
			<rect x="4141.6" y="3456.6" class="st0" width="137" height="137"/>
		</g>
	</g>
	<g class="st2">
		<g>
			<rect x="1401.4" y="3593.6" class="st0" width="137" height="137"/>
		</g>
	</g>
	<g class="st2">
		<g>
			<rect x="1675.5" y="3593.6" class="st0" width="137" height="137"/>
		</g>
	</g>
	<g class="st2">
		<g>
			<rect x="1949.5" y="3593.6" class="st0" width="137" height="137"/>
		</g>
	</g>
	<g class="st2">
		<g>
			<rect x="2086.5" y="3593.6" class="st0" width="137" height="137"/>
		</g>
	</g>
	<g class="st2">
		<g>
			<rect x="2360.5" y="3593.6" class="st0" width="137" height="137"/>
		</g>
	</g>
	<g class="st2">
		<g>
			<rect x="2497.5" y="3593.6" class="st0" width="137" height="137"/>
		</g>
	</g>
	<g class="st2">
		<g>
			<rect x="2634.5" y="3593.6" class="st0" width="137" height="137"/>
		</g>
	</g>
	<g class="st2">
		<g>
			<rect x="2908.5" y="3593.6" class="st0" width="137" height="137"/>
		</g>
	</g>
	<g class="st2">
		<g>
			<rect x="3045.6" y="3593.6" class="st0" width="137" height="137"/>
		</g>
	</g>
	<g class="st2">
		<g>
			<rect x="3182.6" y="3593.6" class="st0" width="137" height="137"/>
		</g>
	</g>
	<g class="st2">
		<g>
			<rect x="3319.6" y="3593.6" class="st0" width="137" height="137"/>
		</g>
	</g>
	<g class="st2">
		<g>
			<rect x="3456.6" y="3593.6" class="st0" width="137" height="137"/>
		</g>
	</g>
	<g class="st2">
		<g>
			<rect x="3593.6" y="3593.6" class="st0" width="137" height="137"/>
		</g>
	</g>
	<g class="st2">
		<g>
			<rect x="1401.4" y="3730.6" class="st0" width="137" height="137"/>
		</g>
	</g>
	<g class="st2">
		<g>
			<rect x="1538.4" y="3730.6" class="st0" width="137" height="137"/>
		</g>
	</g>
	<g class="st2">
		<g>
			<rect x="1812.5" y="3730.6" class="st0" width="137" height="137"/>
		</g>
	</g>
	<g class="st2">
		<g>
			<rect x="1949.5" y="3730.6" class="st0" width="137" height="137"/>
		</g>
	</g>
	<g class="st2">
		<g>
			<rect x="2086.5" y="3730.6" class="st0" width="137" height="137"/>
		</g>
	</g>
	<g class="st2">
		<g>
			<rect x="2634.5" y="3730.6" class="st0" width="137" height="137"/>
		</g>
	</g>
	<g class="st2">
		<g>
			<rect x="2771.5" y="3730.6" class="st0" width="137" height="137"/>
		</g>
	</g>
	<g class="st2">
		<g>
			<rect x="3456.6" y="3730.6" class="st0" width="137" height="137"/>
		</g>
	</g>
	<g class="st2">
		<g>
			<rect x="4004.6" y="3730.6" class="st0" width="137" height="137"/>
		</g>
	</g>
	<g class="st2">
		<g>
			<rect x="2086.5" y="3867.6" class="st0" width="137" height="137"/>
		</g>
	</g>
	<g class="st2">
		<g>
			<rect x="2634.5" y="3867.6" class="st0" width="137" height="137"/>
		</g>
	</g>
	<g class="st2">
		<g>
			<rect x="2771.5" y="3867.6" class="st0" width="137" height="137"/>
		</g>
	</g>
	<g class="st2">
		<g>
			<rect x="3045.6" y="3867.6" class="st0" width="137" height="137"/>
		</g>
	</g>
	<g class="st2">
		<g>
			<rect x="3182.6" y="3867.6" class="st0" width="137" height="137"/>
		</g>
	</g>
	<g class="st2">
		<g>
			<rect x="3456.6" y="3867.6" class="st0" width="137" height="137"/>
		</g>
	</g>
	<g class="st2">
		<g>
			<rect x="3593.6" y="3867.6" class="st0" width="137" height="137"/>
		</g>
	</g>
	<g class="st2">
		<g>
			<rect x="3867.6" y="3867.6" class="st0" width="137" height="137"/>
		</g>
	</g>
	<g class="st2">
		<g>
			<rect x="4004.6" y="3867.6" class="st0" width="137" height="137"/>
		</g>
	</g>
	<g class="st2">
		<g>
			<rect x="4141.6" y="3867.6" class="st0" width="137" height="137"/>
		</g>
	</g>
	<g class="st2">
		<g>
			<rect x="1538.4" y="4004.6" class="st0" width="137" height="137"/>
		</g>
	</g>
	<g class="st2">
		<g>
			<rect x="1812.5" y="4004.6" class="st0" width="137" height="137"/>
		</g>
	</g>
	<g class="st2">
		<g>
			<rect x="2223.5" y="4004.6" class="st0" width="137" height="137"/>
		</g>
	</g>
	<g class="st2">
		<g>
			<rect x="2360.5" y="4004.6" class="st0" width="137" height="137"/>
		</g>
	</g>
	<g class="st2">
		<g>
			<rect x="2497.5" y="4004.6" class="st0" width="137" height="137"/>
		</g>
	</g>
	<g class="st2">
		<g>
			<rect x="2908.5" y="4004.6" class="st0" width="137" height="137"/>
		</g>
	</g>
	<g class="st2">
		<g>
			<rect x="3593.6" y="4004.6" class="st0" width="137" height="137"/>
		</g>
	</g>
	<g class="st2">
		<g>
			<rect x="3730.6" y="4004.6" class="st0" width="137" height="137"/>
		</g>
	</g>
	<g class="st2">
		<g>
			<rect x="3867.6" y="4004.6" class="st0" width="137" height="137"/>
		</g>
	</g>
	<g class="st2">
		<g>
			<rect x="4141.6" y="4004.6" class="st0" width="137" height="137"/>
		</g>
	</g>
	<g class="st2">
		<g>
			<rect x="1949.5" y="4141.6" class="st0" width="137" height="137"/>
		</g>
	</g>
	<g class="st2">
		<g>
			<rect x="2360.5" y="4141.6" class="st0" width="137" height="137"/>
		</g>
	</g>
	<g class="st2">
		<g>
			<rect x="2497.5" y="4141.6" class="st0" width="137" height="137"/>
		</g>
	</g>
	<g class="st2">
		<g>
			<rect x="2771.5" y="4141.6" class="st0" width="137" height="137"/>
		</g>
	</g>
	<g class="st2">
		<g>
			<rect x="3045.6" y="4141.6" class="st0" width="137" height="137"/>
		</g>
	</g>
	<g class="st2">
		<g>
			<rect x="3456.6" y="4141.6" class="st0" width="137" height="137"/>
		</g>
	</g>
	<g class="st2">
		<g>
			<rect x="3593.6" y="4141.6" class="st0" width="137" height="137"/>
		</g>
	</g>
	<path class="st3" d="M1120.6,305.3H449.2H305.3v143.9v671.4v143.9h143.9h671.4h143.9v-143.9V449.2V305.3L1120.6,305.3L1120.6,305.3
		z M1120.6,1120.6H449.2V449.2h671.4V1120.6z"/>
	<path class="st3" d="M4134.8,305.3h-671.4h-143.9v143.9v671.4v143.9h143.9h671.4h143.9v-143.9V449.2V305.3L4134.8,305.3
		L4134.8,305.3z M4134.8,1120.6h-671.4V449.2h671.4V1120.6z"/>
	<path class="st3" d="M1120.6,3319.6H449.2H305.3v143.9v671.4v143.9h143.9h671.4h143.9v-143.9v-671.4v-143.9H1120.6z M1120.6,4134.8
		H449.2v-671.4h671.4V4134.8z"/>
	<g class="st2">
		<g>
			<rect x="579.4" y="579.4" class="st0" width="411" height="411"/>
		</g>
	</g>
	<g class="st2">
		<g>
			<rect x="3593.6" y="579.4" class="st0" width="411" height="411"/>
		</g>
	</g>
	<g class="st2">
		<g>
			<rect x="579.4" y="3593.6" class="st0" width="411" height="411"/>
		</g>
	</g>
</g>
<g>
	<path class="st0" d="M1829.6,1675.5h924.8c85.1,0,154.1,69,154.1,154.1v924.8c0,85.1-69,154.1-154.1,154.1h-924.8
		c-85.1,0-154.1-69-154.1-154.1v-924.8C1675.5,1744.5,1744.5,1675.5,1829.6,1675.5L1829.6,1675.5z"/>
	<g>
		<g>
			<g>
				<path class="st4" d="M2032.6,2614.1c-5.2,0-10.4-1.2-15.3-3.5c-13.6-6.6-21.3-21.3-19.2-36.2l26.5-186.3
					c2.7-19.1,20.4-32.3,39.4-29.6c19.1,2.7,32.3,20.4,29.6,39.4l-11.4,80l106.3-109.8c6.5-6.8,15.5-10.6,25-10.6l250.6-0.7
					l70.3-222.3c5.7-18.1,2.6-37.3-8.7-52.6s-28.5-24.1-47.5-24.1h-340.7c-19.3,0-34.9-15.6-34.9-34.9s15.6-34.9,34.9-34.9h340.7
					c41.5,0,79.3,19.2,103.8,52.6c24.5,33.4,31.4,75.3,18.9,114.8l-77.9,246.6c-4.6,14.5-18,24.3-33.2,24.4l-261.3,0.7l-170.8,176.4
					C2051,2610.4,2041.9,2614.1,2032.6,2614.1z"/>
			</g>
			<g>
				<path class="st5" d="M2434.1,2184.1h-287.9c-19.3,0-34.9-15.6-34.9-34.9c0-19.3,15.6-34.9,34.9-34.9h287.9
					c19.3,0,34.9,15.6,34.9,34.9C2468.9,2168.5,2453.3,2184.1,2434.1,2184.1z"/>
			</g>
			<g>
				<path class="st5" d="M2059.1,2184.1c-1.2,0-2.3-0.1-3.4-0.2c-1.1-0.1-2.3-0.3-3.4-0.5c-1.1-0.2-2.2-0.5-3.3-0.8
					s-2.2-0.7-3.2-1.2c-1-0.4-2.1-0.9-3.1-1.5c-1-0.5-2-1.1-2.9-1.7c-0.9-0.6-1.9-1.3-2.7-2c-0.9-0.7-1.7-1.5-2.5-2.3
					c-0.8-0.8-1.6-1.7-2.3-2.5c-0.7-0.9-1.4-1.8-2-2.7c-0.6-1-1.2-1.9-1.7-2.9c-0.5-1-1-2-1.5-3.1c-0.4-1-0.8-2.1-1.2-3.2
					c-0.3-1.1-0.6-2.2-0.8-3.3c-0.2-1.1-0.4-2.2-0.5-3.4c-0.1-1.1-0.2-2.3-0.2-3.4c0-1.2,0-2.3,0.2-3.4c0.1-1.1,0.3-2.3,0.5-3.4
					c0.2-1.1,0.5-2.2,0.8-3.3c0.3-1.1,0.7-2.2,1.2-3.2c0.4-1,0.9-2.1,1.5-3.1c0.5-1,1.1-2,1.7-2.9c0.6-0.9,1.3-1.9,2-2.7
					c0.7-0.9,1.5-1.7,2.3-2.5c0.8-0.8,1.7-1.6,2.5-2.3c0.9-0.7,1.8-1.4,2.7-2c1-0.6,1.9-1.2,2.9-1.7c1-0.5,2-1,3.1-1.5
					c1-0.4,2.1-0.8,3.2-1.2c1.1-0.3,2.2-0.6,3.3-0.8c1.1-0.2,2.2-0.4,3.4-0.5c2.3-0.2,4.6-0.2,6.9,0c1.1,0.1,2.3,0.3,3.4,0.5
					c1.1,0.2,2.2,0.5,3.3,0.8c1.1,0.3,2.2,0.7,3.2,1.2c1,0.4,2.1,0.9,3.1,1.5c1,0.5,2,1.1,2.9,1.7c0.9,0.6,1.9,1.3,2.7,2
					c0.9,0.7,1.7,1.5,2.5,2.3c0.8,0.8,1.6,1.7,2.3,2.5c0.7,0.9,1.4,1.8,2,2.7c0.6,1,1.2,1.9,1.7,2.9c0.5,1,1,2,1.5,3.1
					c0.4,1.1,0.8,2.1,1.2,3.2c0.3,1.1,0.6,2.2,0.8,3.3c0.2,1.1,0.4,2.2,0.5,3.4c0.1,1.1,0.2,2.3,0.2,3.4c0,1.1-0.1,2.3-0.2,3.4
					c-0.1,1.1-0.3,2.3-0.5,3.4c-0.2,1.1-0.5,2.2-0.8,3.3c-0.3,1.1-0.7,2.2-1.2,3.2c-0.4,1.1-0.9,2.1-1.5,3.1c-0.5,1-1.1,2-1.7,2.9
					c-0.6,0.9-1.3,1.9-2,2.7c-0.7,0.9-1.5,1.7-2.3,2.5c-0.8,0.8-1.7,1.6-2.5,2.3c-0.9,0.7-1.8,1.4-2.7,2c-1,0.6-1.9,1.2-2.9,1.7
					c-1,0.5-2,1-3.1,1.5c-1.1,0.4-2.1,0.8-3.2,1.2c-1.1,0.3-2.2,0.6-3.3,0.8c-1.1,0.2-2.2,0.4-3.4,0.5
					C2061.4,2184,2060.3,2184.1,2059.1,2184.1z"/>
			</g>
			<g>
				<path class="st5" d="M2403.6,2293.5h-287.9c-19.3,0-34.9-15.6-34.9-34.9c0-19.3,15.6-34.9,34.9-34.9h287.9
					c19.3,0,34.9,15.6,34.9,34.9C2438.4,2277.9,2422.8,2293.5,2403.6,2293.5z"/>
			</g>
			<g>
				<path class="st5" d="M2028.6,2293.5c-1.2,0-2.3-0.1-3.4-0.2c-1.1-0.1-2.3-0.3-3.4-0.5c-1.1-0.2-2.2-0.5-3.3-0.8
					c-1.1-0.3-2.2-0.7-3.2-1.2c-1-0.4-2.1-0.9-3.1-1.5c-1-0.5-2-1.1-2.9-1.7c-0.9-0.6-1.9-1.3-2.7-2c-0.9-0.7-1.7-1.5-2.5-2.3
					c-0.8-0.8-1.6-1.7-2.3-2.5c-0.7-0.9-1.4-1.8-2-2.7c-0.6-0.9-1.2-1.9-1.7-2.9c-0.5-1-1-2-1.5-3.1c-0.4-1-0.8-2.1-1.2-3.2
					c-0.3-1.1-0.6-2.2-0.8-3.3c-0.2-1.1-0.4-2.2-0.5-3.4c-0.1-1.1-0.2-2.3-0.2-3.4c0-1.1,0.1-2.3,0.2-3.4c0.1-1.1,0.3-2.3,0.5-3.4
					c0.2-1.1,0.5-2.2,0.8-3.3c0.3-1.1,0.7-2.2,1.2-3.2c0.4-1,0.9-2.1,1.5-3.1c0.5-1,1.1-2,1.7-2.9c0.6-1,1.3-1.9,2-2.8
					c0.7-0.9,1.5-1.7,2.3-2.5c0.8-0.8,1.7-1.6,2.5-2.3c0.9-0.7,1.8-1.4,2.7-2c1-0.6,1.9-1.2,2.9-1.8c1-0.5,2-1,3.1-1.5
					c1-0.4,2.1-0.8,3.2-1.1c1.1-0.3,2.2-0.6,3.3-0.9c1.1-0.2,2.2-0.4,3.4-0.5c2.3-0.2,4.6-0.2,6.9,0c1.1,0.1,2.3,0.3,3.4,0.5
					c1.1,0.2,2.2,0.5,3.3,0.9c1.1,0.3,2.2,0.7,3.2,1.1c1,0.4,2.1,0.9,3.1,1.5c1,0.5,2,1.1,2.9,1.8c0.9,0.6,1.9,1.3,2.7,2
					c0.9,0.7,1.7,1.5,2.5,2.3c0.8,0.8,1.6,1.7,2.3,2.5c0.7,0.9,1.4,1.8,2,2.8c0.6,0.9,1.2,1.9,1.7,2.9c0.5,1,1,2,1.5,3.1
					c0.4,1,0.8,2.1,1.2,3.2c0.3,1.1,0.6,2.2,0.8,3.3c0.2,1.1,0.4,2.3,0.5,3.4c0.1,1.2,0.2,2.3,0.2,3.4c0,1.1-0.1,2.3-0.2,3.4
					c-0.1,1.1-0.3,2.3-0.5,3.4c-0.2,1.1-0.5,2.2-0.8,3.3c-0.3,1.1-0.7,2.2-1.2,3.2c-0.4,1-0.9,2.1-1.5,3.1c-0.5,1-1.1,2-1.7,2.9
					c-0.6,0.9-1.3,1.9-2,2.7c-0.7,0.9-1.5,1.7-2.3,2.5c-0.8,0.8-1.7,1.6-2.5,2.3c-0.9,0.7-1.8,1.4-2.7,2c-1,0.6-1.9,1.2-2.9,1.7
					c-1,0.5-2,1-3.1,1.5c-1.1,0.4-2.1,0.8-3.2,1.2c-1.1,0.3-2.2,0.6-3.3,0.8c-1.1,0.2-2.2,0.4-3.4,0.5
					C2030.9,2293.5,2029.7,2293.5,2028.6,2293.5z"/>
			</g>
		</g>
	</g>
</g>
<g>
	<path class="st0" d="M1604.5,1129.8c-17.4-10.2-31.1-24-41.1-41.3c-10-17.4-15-36.4-15-57.1c0-20.7,5-39.7,15-57
		c10-17.2,23.7-30.9,41.1-40.9c17.4-10,36.7-15.1,57.8-15.1c12.7,0,25,1.9,36.7,5.7c11.7,3.8,22.3,9.3,31.9,16.3
		c1.9,1.6,2.8,3.2,2.8,5c0,1.5-0.5,2.9-1.6,4.2l-29.7,38.8c-1.3,1.9-3,2.8-5,2.8c-1.2,0-2.6-0.5-4.2-1.4c-4.7-3-9.7-5.4-15-7.2
		c-5.3-1.8-10.6-2.7-15.9-2.7c-8.5,0-16.5,2.3-24,6.8c-7.5,4.6-13.5,10.8-18,18.6c-4.5,7.9-6.8,16.6-6.8,26.1
		c0,9.6,2.3,18.4,6.8,26.4c4.6,8,10.6,14.2,18,18.8c7.5,4.6,15.4,6.8,23.9,6.8c6.3,0,11.7-0.7,16.2-2.1c4.5-1.4,9.5-4.1,15.1-8
		c1.4-1,3-1.6,4.5-1.6c1.9,0,3.5,0.9,4.8,2.8l29.1,39.2c1.2,1.6,1.9,3.1,1.9,4.5c0,1.6-0.8,3-2.5,4.2c-9.6,7.3-20.3,12.8-32.1,16.7
		c-11.8,3.9-24.1,5.8-36.9,5.8C1641.2,1145.1,1621.9,1140,1604.5,1129.8z"/>
	<path class="st0" d="M1789.7,1132.8c-15.4-8.8-27.5-20.6-36.4-35.5c-8.9-14.9-13.4-31.3-13.4-49.1c0-18.1,4.5-34.7,13.4-49.8
		c9-15.1,21.2-27,36.6-35.8c15.4-8.8,32.4-13.2,51-13.2c18.6,0,35.7,4.4,51.2,13.2c15.5,8.8,27.7,20.7,36.7,35.8
		s13.5,31.7,13.5,49.8c0,17.8-4.5,34.2-13.6,49.1c-9.1,14.9-21.4,26.8-37,35.5c-15.6,8.8-32.7,13.1-51.4,13.1
		C1822,1145.9,1805.1,1141.5,1789.7,1132.8z M1861.7,1082.8c6.2-3.5,11.1-8.4,14.7-14.5c3.6-6.2,5.4-13,5.4-20.6
		c0-7.7-1.8-14.6-5.4-20.7c-3.6-6.2-8.5-11-14.7-14.5c-6.2-3.5-13.1-5.3-20.7-5.3c-7.6,0-14.4,1.8-20.6,5.3
		c-6.2,3.5-11,8.4-14.6,14.5c-3.6,6.2-5.4,13.1-5.4,20.7c0,7.6,1.8,14.4,5.4,20.6c3.6,6.2,8.4,11,14.6,14.5c6.2,3.5,13,5.3,20.6,5.3
		C1848.6,1088.1,1855.5,1086.3,1861.7,1082.8z"/>
	<path class="st0" d="M2124.9,960c11.6,7.1,20.6,17.1,26.9,30.1c6.3,13,9.5,27.9,9.5,44.9v99.6c0,4.4-2.1,6.5-6.4,6.5h-47.5
		c-4.4,0-6.5-2.2-6.5-6.5v-92.8c0-7.4-1.3-13.9-4-19.5c-2.6-5.6-6.4-10-11.3-13.1c-4.9-3.1-10.6-4.7-17-4.7c-7,0-13.4,1.7-19.1,5
		c-5.7,3.3-10.2,7.6-13.4,12.9c-3.2,5.3-4.8,10.8-4.8,16.5v95.7c0,2.1-0.6,3.7-1.7,4.8c-1.1,1.1-2.7,1.7-4.8,1.7h-47.5
		c-2.1,0-3.7-0.6-4.8-1.7c-1.1-1.1-1.7-2.7-1.7-4.8V958.8c0-4.2,2.2-6.4,6.5-6.4h36.2c3.4,0,6,1.6,7.6,4.7l8.2,13.5
		c7.4-6.3,16.2-11.4,26.5-15.4c10.3-3.9,19.9-5.9,28.7-5.9C2099.8,949.3,2113.3,952.9,2124.9,960z"/>
	<path class="st0" d="M2233.5,1132.6c-15.1-8.9-26.8-20.8-35.2-35.7c-8.4-15-12.6-31.3-12.6-49c0-17.8,4-34.2,12-49.3
		c8-15,19.3-27,33.7-35.9c14.5-8.9,30.9-13.4,49.3-13.4c20.1,0,37.4,4.2,52,12.6c14.6,8.4,25.7,20,33.3,34.8
		c7.7,14.8,11.5,31.8,11.5,50.8c0,5.3-0.3,10-0.8,14.3c-0.4,4.1-2.7,6.2-6.8,6.2h-122c3.7,8,9.1,14,16,18.1
		c6.9,4.1,14.8,6.1,23.5,6.1c5.9,0,11.2-0.8,15.8-2.3c4.6-1.6,9.2-3.8,13.9-6.8c1.3-1,2.7-1.6,4.2-1.6c1.8,0,3.3,1,4.7,3l22.5,32
		c0.9,1.3,1.4,2.7,1.4,4c0,2-0.9,3.6-2.6,5c-8.6,6.4-18.1,11.4-28.6,15c-10.5,3.6-21.7,5.4-33.7,5.4
		C2265.7,1145.9,2248.5,1141.5,2233.5,1132.6z M2304.3,1006.6c-6-3.9-13.2-5.8-21.4-5.8c-8.3,0-15.5,2-21.5,5.9
		c-6.1,3.9-10.7,9.8-13.9,17.6h70.4C2314.8,1016.3,2310.3,1010.5,2304.3,1006.6z"/>
	<path class="st0" d="M2440.7,1132.6c-14.8-8.9-26.4-20.7-34.7-35.7c-8.3-14.9-12.4-31.2-12.4-48.9c0-18,4.1-34.5,12.4-49.6
		c8.2-15,19.8-27,34.7-35.8c14.9-8.9,31.7-13.3,50.6-13.3c12.2,0,23.7,1.8,34.3,5.3c10.7,3.5,20.2,8.4,28.6,14.8
		c1.9,1.3,2.8,3,2.8,5c0,1.2-0.5,2.6-1.4,4l-23.2,33.4c-1.5,2.1-3.1,3.1-4.8,3.1c-1.1,0-2.6-0.5-4.4-1.6c-4.8-3-9.4-5.3-13.8-6.8
		c-4.5-1.5-9.7-2.3-15.8-2.3c-7,0-13.6,1.9-19.7,5.6c-6.1,3.7-11,8.9-14.6,15.5c-3.6,6.6-5.4,14.1-5.4,22.5c0,8.1,1.8,15.4,5.5,21.9
		c3.7,6.5,8.6,11.7,14.8,15.4c6.2,3.7,12.7,5.6,19.7,5.6c6,0,11.3-0.7,15.8-2.2c4.5-1.4,9.1-3.7,13.8-6.7c1.8-1,3.2-1.6,4.2-1.6
		c1.8,0,3.4,1,4.8,3.1l23.3,33.4c1.1,1.7,1.7,3.1,1.7,4.4c0,1.6-0.7,2.9-2,3.9c-8.7,6.5-18.4,11.6-29.2,15.2
		c-10.8,3.6-22.5,5.4-35.1,5.4C2472.2,1145.9,2455.5,1141.5,2440.7,1132.6z"/>
	<path class="st0" d="M2645,1139.4c-1.1,1.1-2.7,1.7-4.8,1.7h-47.5c-2.1,0-3.7-0.6-4.8-1.7c-1.1-1.1-1.7-2.7-1.7-4.8v-126h-12.9
		c-2.1,0-3.7-0.6-4.8-1.7c-1.1-1.1-1.7-2.7-1.7-4.8v-43.2c0-4.2,2.2-6.4,6.5-6.4h12.6v-34.2c0-4,1.9-6.4,5.8-7.1l48.2-9.5
		c0.4-0.1,1-0.2,1.7-0.2c1.7,0,3,0.5,4,1.6c1,1.1,1.5,2.6,1.5,4.4v44.9h26.3c4.4,0,6.5,2.1,6.5,6.4v43.2c0,2.1-0.6,3.7-1.7,4.8
		c-1.1,1.1-2.7,1.7-4.8,1.7h-26.4v126C2646.7,1136.6,2646.2,1138.2,2645,1139.4z"/>
	<path class="st0" d="M2735.2,1132.6c-15.1-8.9-26.8-20.8-35.2-35.7c-8.4-15-12.6-31.3-12.6-49c0-17.8,4-34.2,12-49.3
		c8-15,19.3-27,33.7-35.9c14.5-8.9,30.9-13.4,49.3-13.4c20.1,0,37.4,4.2,52,12.6c14.6,8.4,25.7,20,33.3,34.8
		c7.7,14.8,11.5,31.8,11.5,50.8c0,5.3-0.3,10-0.8,14.3c-0.4,4.1-2.7,6.2-6.8,6.2h-122c3.7,8,9.1,14,16,18.1
		c6.9,4.1,14.8,6.1,23.5,6.1c5.9,0,11.2-0.8,15.8-2.3c4.6-1.6,9.2-3.8,13.9-6.8c1.3-1,2.7-1.6,4.2-1.6c1.8,0,3.3,1,4.7,3l22.5,32
		c0.9,1.3,1.4,2.7,1.4,4c0,2-0.9,3.6-2.6,5c-8.6,6.4-18.1,11.4-28.6,15c-10.5,3.6-21.7,5.4-33.7,5.4
		C2767.5,1145.9,2750.3,1141.5,2735.2,1132.6z M2806,1006.6c-6-3.9-13.2-5.8-21.4-5.8c-8.3,0-15.5,2-21.5,5.9
		c-6.1,3.9-10.7,9.8-13.9,17.6h70.4C2816.5,1016.3,2812,1010.5,2806,1006.6z"/>
	<path class="st0" d="M3019.7,1132.8c-15.4-8.8-27.5-20.6-36.4-35.5c-8.9-14.9-13.4-31.3-13.4-49.1c0-18.1,4.5-34.7,13.4-49.8
		c9-15.1,21.2-27,36.6-35.8c15.4-8.8,32.4-13.2,51-13.2c18.6,0,35.7,4.4,51.2,13.2c15.5,8.8,27.7,20.7,36.8,35.8
		s13.5,31.7,13.5,49.8c0,17.8-4.5,34.2-13.6,49.1c-9.1,14.9-21.4,26.8-37,35.5c-15.6,8.8-32.7,13.1-51.4,13.1
		C3052,1145.9,3035.1,1141.5,3019.7,1132.8z M3091.8,1082.8c6.2-3.5,11.1-8.4,14.7-14.5c3.6-6.2,5.4-13,5.4-20.6
		c0-7.7-1.8-14.6-5.4-20.7c-3.6-6.2-8.5-11-14.7-14.5c-6.2-3.5-13.1-5.3-20.7-5.3c-7.6,0-14.4,1.8-20.6,5.3
		c-6.2,3.5-11,8.4-14.6,14.5c-3.6,6.2-5.4,13.1-5.4,20.7c0,7.6,1.8,14.4,5.4,20.6c3.6,6.2,8.4,11,14.6,14.5c6.2,3.5,13,5.3,20.6,5.3
		C3078.7,1088.1,3085.5,1086.3,3091.8,1082.8z"/>
	<path class="st0" d="M1103.5,1437.1c-12.4-5-24.3-12.5-35.7-22.5c-1.7-1.6-2.5-3.1-2.5-4.7c0-1.3,0.6-2.8,1.7-4.5l22.8-29.2
		c1.4-1.9,3-2.8,4.7-2.8c1.4,0,3,0.6,4.5,1.9c6.4,4.5,13.6,8.1,21.5,11c7.9,2.9,15.5,4.4,22.6,4.4c3.5,0,6.2-0.4,8.1-1.3
		c1.9-0.9,2.8-2.4,2.8-4.6c0-2.3-1.8-4.7-5.4-7.2c-3.6-2.5-10.7-5.7-21.4-9.4c-15.6-5.5-28.5-12.9-38.7-22.1
		c-10.2-9.3-15.2-22.1-15.2-38.6c0-10.5,2.6-20.2,7.8-29.2c5.2-9,13.2-16.3,23.9-21.8c10.7-5.5,23.8-8.3,39.3-8.3
		c10.6,0,21.4,2.1,32.6,6.4c11.2,4.2,21.1,10.7,29.8,19.3c1.3,1.3,2,2.8,2,4.4c0,1.7-0.7,3.2-2.2,4.7l-28.9,30
		c-1.3,1.5-2.8,2.2-4.4,2.2c-1.6,0-3.2-0.7-4.8-2c-3.5-2.8-7.6-5.1-12.4-7c-4.7-1.9-9.4-2.8-14.1-2.8c-7.3,0-10.9,2.1-10.9,6.4
		c0,1.6,0.9,3,2.6,4.4c1.8,1.4,4.6,2.9,8.6,4.5c4,1.6,9.7,3.7,17.2,6.1c17,5.6,30,13,38.9,22.1c9,9.1,13.4,21.6,13.4,37.4
		c0,10.4-2.6,20.2-7.8,29.4c-5.2,9.3-12.9,16.8-23.1,22.5c-10.2,5.7-22.3,8.6-36.4,8.6C1129.7,1444.5,1115.9,1442.1,1103.5,1437.1z"
		/>
	<path class="st0" d="M1276.7,1431.3c-15.1-8.9-26.8-20.8-35.2-35.7c-8.4-15-12.6-31.3-12.6-49c0-17.8,4-34.2,12-49.3
		c8-15,19.3-27,33.7-35.9c14.5-8.9,30.9-13.4,49.3-13.4c20.1,0,37.4,4.2,52,12.6c14.6,8.4,25.7,20,33.3,34.8
		c7.7,14.8,11.5,31.8,11.5,50.8c0,5.3-0.3,10-0.8,14.3c-0.4,4.1-2.7,6.2-6.8,6.2h-122c3.7,8,9.1,14,16,18.1
		c6.9,4.1,14.8,6.1,23.5,6.1c5.9,0,11.2-0.8,15.8-2.3c4.6-1.6,9.2-3.8,13.9-6.8c1.3-1,2.7-1.6,4.2-1.6c1.8,0,3.3,1,4.7,3l22.5,32
		c0.9,1.3,1.4,2.7,1.4,4c0,2-0.9,3.6-2.6,5c-8.6,6.4-18.1,11.4-28.6,15c-10.5,3.6-21.7,5.4-33.7,5.4
		C1308.9,1444.5,1291.7,1440.1,1276.7,1431.3z M1347.5,1305.2c-6-3.9-13.2-5.8-21.4-5.8c-8.3,0-15.5,2-21.5,5.9
		c-6.1,3.9-10.7,9.8-13.9,17.6h70.4C1358,1315,1353.5,1309.1,1347.5,1305.2z"/>
	<path class="st0" d="M1581.6,1251.1h47.5c4.4,0,6.5,2.1,6.5,6.4v175.7c0,4.4-2.2,6.5-6.5,6.5h-36.1c-3.5,0-6.1-1.6-7.8-4.8
		l-8.1-13.4c-7.4,6.3-16.2,11.4-26.5,15.3c-10.3,3.9-19.9,5.8-28.8,5.8c-15.4,0-29-3.5-40.6-10.6c-11.6-7.1-20.6-17.1-26.9-30
		c-6.3-12.9-9.5-27.8-9.5-44.8v-99.8c0-4.2,2.2-6.4,6.5-6.4h47.5c4.2,0,6.4,2.1,6.4,6.4v92.9c0,7.3,1.3,13.7,4,19.3
		c2.6,5.6,6.4,10,11.3,13.1c4.9,3.1,10.6,4.7,17,4.7c7,0,13.4-1.7,19.1-5c5.7-3.3,10.2-7.6,13.4-12.8c3.2-5.2,4.8-10.7,4.8-16.4
		v-95.9C1575.1,1253.2,1577.3,1251.1,1581.6,1251.1z"/>
	<path class="st0" d="M1882.6,1196.5h47.4c4.4,0,6.5,2.1,6.5,6.4v230.3c0,2.1-0.6,3.7-1.7,4.8c-1.1,1.1-2.7,1.7-4.8,1.7h-36.1
		c-3.4,0-6-1.6-7.6-4.8l-4.8-3.1c-12.3,8.1-26.8,12.1-43.5,12.1c-17.9,0-34.5-4.4-49.7-13.3c-15.2-8.9-27.3-20.8-36.2-35.8
		c-8.9-15-13.4-31.4-13.4-49.3c0-17.7,4.5-34.1,13.4-49c9-15,21.1-26.8,36.3-35.5c15.2-8.7,31.8-13.1,49.6-13.1
		c7.6,0,14.4,0.6,20.6,1.9c6.2,1.2,12,3.1,17.5,5.6v-52.5C1876.1,1198.7,1878.3,1196.5,1882.6,1196.5z M1859.7,1381
		c6.2-3.3,11-8,14.6-14.1c3.6-6.1,5.4-12.9,5.4-20.6c0-7.7-1.8-14.6-5.3-20.7c-3.5-6.2-8.3-11-14.5-14.5c-6.1-3.5-12.9-5.3-20.4-5.3
		c-7.6,0-14.4,1.7-20.5,5.2c-6.1,3.5-10.9,8.3-14.5,14.5c-3.5,6.2-5.3,13.2-5.3,20.8c0,7.8,1.7,14.7,5.1,20.7
		c3.4,6,8.2,10.7,14.2,14c6.1,3.3,12.9,5,20.4,5C1846.7,1386,1853.5,1384.3,1859.7,1381z"/>
	<path class="st0" d="M1977.2,1226.4v-42.1c0-4.4,2.1-6.5,6.4-6.5h48c4.4,0,6.5,2.2,6.5,6.5v42.1c0,4.4-2.2,6.5-6.5,6.5h-48
		C1979.4,1232.9,1977.2,1230.7,1977.2,1226.4z M2036.1,1438c-1.1,1.1-2.7,1.7-4.8,1.7h-47.5c-2.1,0-3.7-0.6-4.8-1.7
		c-1.1-1.1-1.7-2.7-1.7-4.8v-175.7c0-4.2,2.2-6.4,6.5-6.4h47.5c4.4,0,6.5,2.1,6.5,6.4v175.7
		C2037.8,1435.3,2037.3,1436.9,2036.1,1438z"/>
	<path class="st0" d="M2105,1437.1c-12.4-5-24.3-12.5-35.7-22.5c-1.7-1.6-2.5-3.1-2.5-4.7c0-1.3,0.6-2.8,1.7-4.5l22.8-29.2
		c1.4-1.9,3-2.8,4.7-2.8c1.4,0,3,0.6,4.5,1.9c6.4,4.5,13.6,8.1,21.5,11c7.9,2.9,15.5,4.4,22.6,4.4c3.5,0,6.2-0.4,8.1-1.3
		c1.9-0.9,2.8-2.4,2.8-4.6c0-2.3-1.8-4.7-5.4-7.2c-3.6-2.5-10.7-5.7-21.4-9.4c-15.6-5.5-28.5-12.9-38.7-22.1
		c-10.2-9.3-15.2-22.1-15.2-38.6c0-10.5,2.6-20.2,7.8-29.2c5.2-9,13.2-16.3,23.9-21.8c10.7-5.5,23.8-8.3,39.3-8.3
		c10.6,0,21.4,2.1,32.6,6.4c11.2,4.2,21.1,10.7,29.8,19.3c1.3,1.3,2,2.8,2,4.4c0,1.7-0.7,3.2-2.2,4.7l-28.9,30
		c-1.3,1.5-2.8,2.2-4.4,2.2c-1.6,0-3.2-0.7-4.8-2c-3.5-2.8-7.6-5.1-12.4-7c-4.7-1.9-9.4-2.8-14.1-2.8c-7.3,0-10.9,2.1-10.9,6.4
		c0,1.6,0.9,3,2.6,4.4c1.8,1.4,4.6,2.9,8.6,4.5c4,1.6,9.7,3.7,17.2,6.1c17,5.6,30,13,38.9,22.1c9,9.1,13.4,21.6,13.4,37.4
		c0,10.4-2.6,20.2-7.8,29.4c-5.2,9.3-12.9,16.8-23.1,22.5c-10.2,5.7-22.3,8.6-36.4,8.6C2131.2,1444.5,2117.4,1442.1,2105,1437.1z"/>
	<path class="st0" d="M2390.7,1261c15.2,8.7,27.3,20.5,36.3,35.5c9,15,13.4,31.3,13.4,49c0,17.8-4.5,34.2-13.4,49.3
		c-8.9,15-21,27-36.2,35.8c-15.2,8.9-31.8,13.3-49.7,13.3c-14.2,0-26.8-2.5-37.9-7.5v51.9c0,2.1-0.6,3.7-1.7,4.8
		c-1.1,1.1-2.7,1.7-4.8,1.7h-47.5c-2.1,0-3.7-0.6-4.8-1.7c-1.1-1.1-1.7-2.7-1.7-4.8v-230.9c0-4.2,2.2-6.4,6.5-6.4h34.7
		c3.4,0,6,1.6,7.6,4.7l5.6,4.8c12.3-8.4,27-12.6,44.1-12.6C2359,1248,2375.5,1252.3,2390.7,1261z M2360.5,1381
		c6.1-3.3,10.8-8,14.2-14c3.4-6,5.1-12.9,5.1-20.7c0-7.7-1.8-14.6-5.3-20.8c-3.5-6.2-8.3-11.1-14.5-14.5c-6.1-3.5-13-5.2-20.5-5.2
		c-7.5,0-14.2,1.8-20.4,5.3c-6.1,3.5-10.9,8.4-14.5,14.5c-3.5,6.2-5.3,13.1-5.3,20.7c0,7.7,1.8,14.5,5.4,20.6
		c3.6,6.1,8.4,10.7,14.6,14.1c6.2,3.3,13,5,20.6,5C2347.6,1386,2354.4,1384.3,2360.5,1381z"/>
	<path class="st0" d="M2506.3,1431.4c-15.4-8.8-27.5-20.6-36.4-35.5c-8.9-14.9-13.4-31.3-13.4-49.1c0-18.1,4.5-34.7,13.4-49.8
		c9-15.1,21.2-27,36.6-35.8c15.4-8.8,32.4-13.2,51-13.2c18.6,0,35.7,4.4,51.2,13.2c15.5,8.8,27.7,20.7,36.8,35.8
		s13.5,31.7,13.5,49.8c0,17.8-4.5,34.2-13.6,49.1c-9.1,14.9-21.4,26.8-37,35.5c-15.6,8.8-32.7,13.1-51.4,13.1
		C2538.6,1444.5,2521.6,1440.2,2506.3,1431.4z M2578.3,1381.5c6.2-3.5,11.1-8.4,14.7-14.5c3.6-6.2,5.4-13,5.4-20.6
		c0-7.7-1.8-14.6-5.4-20.7c-3.6-6.2-8.5-11-14.7-14.5c-6.2-3.5-13.1-5.3-20.7-5.3c-7.6,0-14.4,1.8-20.6,5.3
		c-6.2,3.5-11,8.4-14.6,14.5c-3.6,6.2-5.4,13.1-5.4,20.7c0,7.6,1.8,14.4,5.4,20.6c3.6,6.2,8.4,11,14.6,14.5c6.2,3.5,13,5.3,20.6,5.3
		C2565.2,1386.7,2572.1,1385,2578.3,1381.5z"/>
	<path class="st0" d="M2713.3,1437.1c-12.4-5-24.3-12.5-35.7-22.5c-1.7-1.6-2.5-3.1-2.5-4.7c0-1.3,0.6-2.8,1.7-4.5l22.8-29.2
		c1.4-1.9,3-2.8,4.7-2.8c1.4,0,3,0.6,4.5,1.9c6.4,4.5,13.6,8.1,21.5,11c7.9,2.9,15.5,4.4,22.6,4.4c3.5,0,6.2-0.4,8.1-1.3
		c1.9-0.9,2.8-2.4,2.8-4.6c0-2.3-1.8-4.7-5.4-7.2c-3.6-2.5-10.7-5.7-21.4-9.4c-15.6-5.5-28.5-12.9-38.7-22.1
		c-10.2-9.3-15.2-22.1-15.2-38.6c0-10.5,2.6-20.2,7.8-29.2c5.2-9,13.2-16.3,23.9-21.8c10.7-5.5,23.8-8.3,39.3-8.3
		c10.6,0,21.4,2.1,32.6,6.4c11.2,4.2,21.1,10.7,29.8,19.3c1.3,1.3,2,2.8,2,4.4c0,1.7-0.7,3.2-2.2,4.7l-28.9,30
		c-1.3,1.5-2.8,2.2-4.4,2.2s-3.2-0.7-4.8-2c-3.5-2.8-7.6-5.1-12.4-7c-4.7-1.9-9.4-2.8-14.1-2.8c-7.3,0-10.9,2.1-10.9,6.4
		c0,1.6,0.9,3,2.6,4.4c1.8,1.4,4.6,2.9,8.6,4.5c4,1.6,9.7,3.7,17.2,6.1c17,5.6,30,13,38.9,22.1c9,9.1,13.4,21.6,13.4,37.4
		c0,10.4-2.6,20.2-7.8,29.4c-5.2,9.3-12.9,16.8-23.1,22.5c-10.2,5.7-22.3,8.6-36.4,8.6C2739.5,1444.5,2725.7,1442.1,2713.3,1437.1z"
		/>
	<path class="st0" d="M2851,1226.4v-42.1c0-4.4,2.1-6.5,6.4-6.5h48c4.4,0,6.5,2.2,6.5,6.5v42.1c0,4.4-2.2,6.5-6.5,6.5h-48
		C2853.1,1232.9,2851,1230.7,2851,1226.4z M2909.9,1438c-1.1,1.1-2.7,1.7-4.8,1.7h-47.5c-2.1,0-3.7-0.6-4.8-1.7
		c-1.1-1.1-1.7-2.7-1.7-4.8v-175.7c0-4.2,2.2-6.4,6.5-6.4h47.5c4.4,0,6.5,2.1,6.5,6.4v175.7C2911.6,1435.3,2911,1436.9,2909.9,1438z
		"/>
	<path class="st0" d="M3010.1,1438c-1.1,1.1-2.7,1.7-4.8,1.7h-47.5c-2.1,0-3.7-0.6-4.8-1.7c-1.1-1.1-1.7-2.7-1.7-4.8v-126h-12.9
		c-2.1,0-3.7-0.6-4.8-1.7c-1.1-1.1-1.7-2.7-1.7-4.8v-43.2c0-4.2,2.2-6.4,6.5-6.4h12.6v-34.2c0-4,1.9-6.4,5.8-7.1l48.2-9.5
		c0.4-0.1,1-0.2,1.7-0.2c1.7,0,3,0.5,4,1.6c1,1.1,1.5,2.6,1.5,4.4v44.9h26.3c4.4,0,6.5,2.1,6.5,6.4v43.2c0,2.1-0.6,3.7-1.7,4.8
		c-1.1,1.1-2.7,1.7-4.8,1.7h-26.4v126C3011.8,1435.3,3011.2,1436.9,3010.1,1438z"/>
	<path class="st0" d="M3064.8,1226.4v-42.1c0-4.4,2.1-6.5,6.4-6.5h48c4.4,0,6.5,2.2,6.5,6.5v42.1c0,4.4-2.2,6.5-6.5,6.5h-48
		C3066.9,1232.9,3064.8,1230.7,3064.8,1226.4z M3123.7,1438c-1.1,1.1-2.7,1.7-4.8,1.7h-47.5c-2.1,0-3.7-0.6-4.8-1.7
		c-1.1-1.1-1.7-2.7-1.7-4.8v-175.7c0-4.2,2.2-6.4,6.5-6.4h47.5c4.4,0,6.5,2.1,6.5,6.4v175.7
		C3125.4,1435.3,3124.8,1436.9,3123.7,1438z"/>
	<path class="st0" d="M3271.5,1439.7h-47.4c-3.7,0-6.2-1.8-7.5-5.3l-67.1-175.9c-0.4-0.9-0.6-1.9-0.6-2.8c0-1.4,0.5-2.6,1.6-3.4
		c1-0.8,2.5-1.2,4.4-1.2h53.3c3.9,0,6.5,1.8,7.6,5.3l32.2,110.2l32.3-110.2c1-3.5,3.5-5.3,7.5-5.3h53.5c1.8,0,3.2,0.4,4.2,1.2
		c1,0.8,1.6,1.9,1.6,3.3c0,1-0.2,2-0.6,3l-67.3,175.9C3277.7,1438,3275.2,1439.7,3271.5,1439.7z"/>
	<path class="st0" d="M3401.8,1431.4c-15.4-8.8-27.5-20.6-36.4-35.5c-8.9-14.9-13.4-31.3-13.4-49.1c0-18.1,4.5-34.7,13.4-49.8
		c9-15.1,21.2-27,36.6-35.8c15.4-8.8,32.4-13.2,51-13.2c18.6,0,35.7,4.4,51.2,13.2c15.5,8.8,27.7,20.7,36.8,35.8
		s13.5,31.7,13.5,49.8c0,17.8-4.5,34.2-13.6,49.1c-9.1,14.9-21.4,26.8-37,35.5c-15.6,8.8-32.7,13.1-51.4,13.1
		C3434.1,1444.5,3417.2,1440.2,3401.8,1431.4z M3473.8,1381.5c6.2-3.5,11.1-8.4,14.7-14.5c3.6-6.2,5.4-13,5.4-20.6
		c0-7.7-1.8-14.6-5.4-20.7c-3.6-6.2-8.5-11-14.7-14.5c-6.2-3.5-13.1-5.3-20.7-5.3c-7.6,0-14.4,1.8-20.6,5.3
		c-6.2,3.5-11,8.4-14.6,14.5c-3.6,6.2-5.4,13.1-5.4,20.7c0,7.6,1.8,14.4,5.4,20.6c3.6,6.2,8.4,11,14.6,14.5c6.2,3.5,13,5.3,20.6,5.3
		C3460.7,1386.7,3467.6,1385,3473.8,1381.5z"/>
	<path class="st0" d="M3636.8,1362.3h-47.5c-4.4,0-6.5-2.1-6.5-6.4v-152.6c0-2.1,0.6-3.7,1.7-4.8c1.1-1.1,2.7-1.7,4.8-1.7h47.5
		c2.1,0,3.7,0.6,4.8,1.7c1.1,1.1,1.7,2.7,1.7,4.8V1356C3643.3,1360.2,3641.1,1362.3,3636.8,1362.3z M3643.6,1387.1v46.2
		c0,4.4-2.2,6.5-6.5,6.5h-48c-4.2,0-6.4-2.2-6.4-6.5v-46.2c0-4.4,2.1-6.5,6.4-6.5h48C3641.5,1380.5,3643.6,1382.7,3643.6,1387.1z"/>
</g>
<g>
	<path class="st0" d="M1824.7,3340.7c-11.2-6.5-20-15.4-26.5-26.6c-6.5-11.2-9.7-23.6-9.7-37c0-13.5,3.2-25.8,9.7-37
		c6.5-11.2,15.3-20.1,26.5-26.5c11.2-6.5,23.5-9.7,36.9-9.7c8.6,0,16.6,1.3,24.3,3.9c7.6,2.6,14.5,6.4,20.7,11.2
		c1.1,0.9,1.7,1.9,1.7,2.9c0,0.7-0.4,1.7-1.1,2.7l-5.7,7.5c-0.9,1.1-1.9,1.7-2.9,1.7c-0.9,0-1.8-0.4-2.7-1.1
		c-5-3.6-10.4-6.4-16.2-8.4c-5.8-2-11.8-3-18.1-3c-9.8,0-18.9,2.5-27.3,7.4c-8.4,4.9-15,11.7-19.9,20.2c-4.9,8.6-7.4,18-7.4,28.3
		c0,10.2,2.5,19.6,7.4,28.2c4.9,8.5,11.6,15.2,19.9,20.2c8.4,4.9,17.5,7.4,27.3,7.4c6.4,0,12.4-1,18-3c5.6-2,11.1-5,16.4-8.9
		c0.9-0.6,1.8-0.9,2.5-0.9c1.2,0,2.3,0.6,3.1,1.7l5.7,7.5c0.7,1.1,1.1,2,1.1,2.8c0,0.9-0.5,1.8-1.4,2.5c-6.3,5-13.3,8.9-21,11.7
		c-7.7,2.8-15.8,4.2-24.4,4.2C1848.2,3350.4,1835.9,3347.2,1824.7,3340.7z"/>
	<path class="st0" d="M1947.4,3348.1h-9.2c-2.7,0-4-1.3-4-4v-149.9c0-2.7,1.3-4,4-4h9.2c2.7,0,4,1.3,4,4V3344
		C1951.5,3346.7,1950.1,3348.1,1947.4,3348.1z"/>
	<path class="st0" d="M1987.2,3203v-9.7c0-2.7,1.3-4,4-4h9.2c2.7,0,4,1.3,4,4v9.7c0,2.7-1.3,4-4,4h-9.2
		C1988.6,3207.1,1987.2,3205.7,1987.2,3203z M2000.5,3348.1h-9.2c-2.7,0-4-1.3-4-4v-112.7c0-2.7,1.3-4,4-4h9.2c2.7,0,4,1.3,4,4V3344
		C2004.5,3346.7,2003.2,3348.1,2000.5,3348.1z"/>
	<path class="st0" d="M2135.4,3227.3h8.7c2.7,0,4,1.3,4,4v148.6c0,2.7-1.3,4-4,4h-9.2c-2.7,0-4-1.3-4-4v-51.8
		c-4.6,6.9-10.5,12.3-17.4,16.3c-7,4-14.9,6-23.8,6c-10.9,0-20.8-2.8-29.5-8.3c-8.8-5.5-15.6-13.1-20.5-22.6
		c-4.9-9.6-7.4-20.1-7.4-31.7c0-11.5,2.5-22.1,7.4-31.6s11.8-17.1,20.6-22.7c8.8-5.6,18.6-8.3,29.4-8.3c9.2,0,17.2,2,24.2,6
		c7,4,12.8,9.5,17.3,16.4l0.2-16.4C2131.5,3228.6,2132.9,3227.3,2135.4,3227.3z M2111.5,3327.9c6.4-4,11.3-9.4,14.9-16.4
		c3.6-6.9,5.4-14.7,5.4-23.3c0-8.6-1.8-16.5-5.4-23.6c-3.6-7.1-8.5-12.6-14.9-16.7c-6.4-4-13.6-6.1-21.6-6.1c-7.9,0-14.9,2-21,6.1
		c-6.1,4-10.9,9.6-14.3,16.6c-3.4,7-5.1,14.9-5.1,23.6c0,8.6,1.7,16.4,5.1,23.3c3.4,6.9,8.1,12.4,14.2,16.4c6.1,4,13.1,6,21,6
		C2097.9,3333.8,2105.1,3331.8,2111.5,3327.9z"/>
	<path class="st0" d="M2272.7,3227.3h9.2c2.7,0,4,1.3,4,4V3344c0,2.7-1.3,4-4,4h-8c-1.3,0-2.3-0.3-2.9-1c-0.7-0.7-1-1.7-1.1-2.9
		l-0.4-12.8c-4.4,5.5-10.3,10-17.6,13.6s-15,5.4-23,5.4c-9.7,0-18.2-2.1-25.5-6.3c-7.3-4.2-13-10.1-16.9-17.8c-4-7.7-6-16.7-6-26.9
		v-67.9c0-2.7,1.3-4,4-4h9.6c2.7,0,4,1.3,4,4v66.2c0,7.3,1.4,13.6,4.1,19.1c2.8,5.4,6.7,9.6,11.7,12.5c5,2.9,10.9,4.4,17.5,4.4
		c6.7,0,12.9-1.6,18.5-4.7c5.7-3.1,10.2-7.4,13.6-12.9c3.4-5.5,5.1-11.6,5.1-18.3v-66.2C2268.6,3228.7,2270,3227.3,2272.7,3227.3z"
		/>
	<path class="st0" d="M2343.2,3342.4c-9.1-5.6-16.3-13.2-21.6-22.7c-5.3-9.6-8-20-8-31.4c0-11.5,2.5-22,7.4-31.7
		c5-9.7,11.7-17.3,20.3-22.9c8.6-5.6,18-8.4,28.3-8.4c11.1,0,20.8,2.7,29.2,8.2c8.4,5.5,14.9,13,19.4,22.5
		c4.5,9.6,6.8,20.3,6.8,32.1v4.2c-0.1,0.9-0.5,1.7-1.2,2.2c-0.7,0.5-1.7,0.8-3,0.8H2331c0.9,7.8,3.5,14.7,7.5,20.6
		c4.1,5.9,9.2,10.4,15.4,13.6c6.2,3.2,12.8,4.8,19.9,4.8c11.5,0,22-3.8,31.3-11.5c0.9-0.8,1.9-1.2,2.7-1.2c1.1,0,2.1,0.6,2.9,1.8
		l4.8,7c0.7,1,1,1.9,1,2.6c0,1.1-0.5,2.2-1.6,3c-5.7,4.8-12.1,8.5-19.2,11.1c-7,2.6-14.6,3.9-22.7,3.9
		C2362.3,3350.8,2352.3,3348,2343.2,3342.4z M2401.1,3259.2c-3.3-5.6-7.7-9.9-13-12.9c-5.3-3-11.4-4.5-18.1-4.5
		c-6.4,0-12.4,1.5-17.9,4.6c-5.5,3.1-10.1,7.4-13.8,13c-3.7,5.6-6.1,12.1-7.2,19.6h76.4C2406.6,3271.4,2404.4,3264.8,2401.1,3259.2z
		"/>
	<path class="st0" d="M2527.8,3342.4c-9.1-5.6-16.3-13.2-21.6-22.7c-5.3-9.6-8-20-8-31.4c0-11.5,2.5-22,7.4-31.7
		c5-9.7,11.7-17.3,20.3-22.9c8.6-5.6,18-8.4,28.3-8.4c11.1,0,20.8,2.7,29.2,8.2c8.4,5.5,14.9,13,19.4,22.5
		c4.5,9.6,6.8,20.3,6.8,32.1v4.2c-0.1,0.9-0.5,1.7-1.2,2.2c-0.7,0.5-1.7,0.8-3,0.8h-89.9c0.9,7.8,3.5,14.7,7.5,20.6
		c4.1,5.9,9.2,10.4,15.4,13.6c6.2,3.2,12.8,4.8,19.9,4.8c11.5,0,22-3.8,31.3-11.5c0.9-0.8,1.9-1.2,2.7-1.2c1.1,0,2.1,0.6,2.9,1.8
		l4.8,7c0.7,1,1,1.9,1,2.6c0,1.1-0.5,2.2-1.6,3c-5.7,4.8-12.1,8.5-19.2,11.1c-7,2.6-14.6,3.9-22.7,3.9
		C2546.8,3350.8,2536.9,3348,2527.8,3342.4z M2585.6,3259.2c-3.3-5.6-7.7-9.9-13-12.9c-5.3-3-11.4-4.5-18.1-4.5
		c-6.4,0-12.4,1.5-17.9,4.6c-5.5,3.1-10.1,7.4-13.8,13c-3.7,5.6-6.1,12.1-7.2,19.6h76.4C2591.1,3271.4,2589,3264.8,2585.6,3259.2z"
		/>
	<path class="st0" d="M2790.5,3230.9c6.8,4,12.1,9.7,15.8,17.1c3.7,7.4,5.6,16.1,5.6,26v70c0,2.7-1.3,4-4,4h-9.2c-2.7,0-4-1.3-4-4
		v-68.4c0-6.9-1.2-12.9-3.7-18c-2.5-5.1-6-9.1-10.5-11.8c-4.5-2.8-9.8-4.1-15.8-4.1c-5.5,0-10.6,1.6-15.4,4.6
		c-4.8,3.1-8.6,7.2-11.6,12.4c-2.9,5.2-4.4,10.7-4.4,16.7v68.6c0,2.7-1.3,4-4,4h-9.2c-2.7,0-4-1.3-4-4v-68.4c0-6.9-1.2-12.9-3.7-18
		c-2.5-5.1-6-9.1-10.5-11.8c-4.5-2.8-9.8-4.1-15.8-4.1c-5.5,0-10.6,1.6-15.4,4.7c-4.8,3.1-8.7,7.3-11.6,12.5
		c-2.9,5.2-4.3,10.8-4.3,16.7v68.4c0,2.7-1.3,4-4,4h-9.2c-2.7,0-4-1.3-4-4v-112.7c0-2.7,1.3-4,4-4h7.9c2.7,0,4.1,1.3,4.1,3.9
		l0.2,9.6c4.3-5.1,9.7-9,16-11.8c6.4-2.7,12.5-4.1,18.5-4.1c9,0,16.9,2,23.7,6c6.8,4,12,9.6,15.7,17c2.6-5,6-9.2,10.5-12.7
		c4.4-3.5,9.1-6,14.2-7.7c5.1-1.7,9.9-2.5,14.6-2.5C2775.8,3225,2783.7,3227,2790.5,3230.9z"/>
	<path class="st0" d="M1497.6,3435.4c1,0,2,0.4,2.8,1.2l1.3,1.2c1,0.8,1.5,1.7,1.5,2.7s-0.5,2-1.5,3c-2.7,2.8-4.6,5.6-5.9,8.3
		c-1.2,2.7-1.8,5.1-1.8,7.2v0.6h6c2.7,0,4,1.3,4,4v15.3c0,2.7-1.3,4-4,4h-14.7c-2.7,0-4-1.3-4-4v-14c0-5.2,1.2-10.1,3.6-14.7
		c2.4-4.6,5.7-9.1,9.7-13.4C1495.6,3435.9,1496.6,3435.4,1497.6,3435.4z M1528.6,3435.4c1,0,2,0.4,2.8,1.2l1.3,1.2
		c1,0.8,1.5,1.7,1.5,2.7s-0.5,2-1.5,3c-2.7,2.8-4.6,5.6-5.9,8.3s-1.8,5.1-1.8,7.2v0.6h5.9c2.7,0,4,1.3,4,4v15.3c0,2.7-1.3,4-4,4
		h-14.6c-2.7,0-4-1.3-4-4v-14c0-5.2,1.2-10.1,3.6-14.7c2.4-4.6,5.7-9.1,9.7-13.4C1526.6,3435.9,1527.6,3435.4,1528.6,3435.4z"/>
	<path class="st0" d="M1654.4,3514.2h18.2c2.7,0,4,1.3,4,4v44.5c0,2.1-0.8,3.7-2.4,4.9c-6.3,4.4-13.5,7.9-21.6,10.4
		s-16.3,3.7-24.7,3.7c-13.5,0-25.9-3.3-37.2-9.9c-11.3-6.6-20.1-15.5-26.6-26.8c-6.5-11.3-9.7-23.7-9.7-37.1c0-13.5,3.2-25.8,9.7-37
		c6.5-11.2,15.3-20.1,26.5-26.6c11.2-6.5,23.6-9.8,37.2-9.8c8.3,0,16.2,1.3,23.9,3.9c7.6,2.6,14.6,6.3,20.8,11
		c1.1,0.9,1.7,1.9,1.7,2.9c0,0.9-0.4,1.8-1.1,2.7l-11.1,14.6c-0.9,1.1-2,1.7-3,1.7c-0.9,0-1.8-0.3-2.6-0.9c-4.1-3-8.6-5.3-13.5-7.1
		c-4.9-1.8-9.9-2.6-15-2.6c-8.2,0-15.7,2.1-22.7,6.3c-7,4.2-12.6,9.9-16.8,17.1c-4.2,7.2-6.3,15.2-6.3,23.9c0,8.8,2.1,16.8,6.3,24.2
		c4.2,7.3,9.8,13.2,16.8,17.4c7,4.3,14.6,6.4,22.7,6.4c3.8,0,7.7-0.4,11.6-1.3c3.9-0.9,7.5-2.1,10.9-3.7v-32.6
		C1650.4,3515.5,1651.7,3514.2,1654.4,3514.2z"/>
	<path class="st0" d="M1725.8,3573.5c-9.4-5.7-16.8-13.3-22.2-23c-5.4-9.7-8.1-20.2-8.1-31.6c0-11.5,2.5-22.1,7.6-31.8
		s12-17.4,21-23.1c8.9-5.7,18.9-8.5,29.9-8.5c11.9,0,22.2,2.7,31.1,8.2c8.9,5.5,15.6,13,20.4,22.6c4.7,9.6,7.1,20.4,7.1,32.5
		c0,1.1-0.1,3-0.2,5.7c-0.2,2.2-1.6,3.3-4.2,3.3h-86c1.2,6.2,3.6,11.6,7.1,16.3c3.5,4.6,7.8,8.2,12.9,10.8
		c5.1,2.5,10.5,3.8,16.2,3.8c9.9,0,18.9-3.1,26.9-9.2c0.8-0.7,1.7-1.1,2.7-1.1c1.1,0,2.1,0.6,2.9,1.8l8.4,11.9c0.7,1,1,1.9,1,2.6
		c0,1.1-0.5,2.2-1.6,3c-5.7,4.6-12.1,8.1-19,10.6c-6.9,2.5-14.4,3.7-22.3,3.7C1745.7,3582,1735.2,3579.2,1725.8,3573.5z
		 M1775.7,3486.1c-5.6-5.2-12.6-7.8-21-7.8c-5.3,0-10.3,1.2-14.8,3.6c-4.5,2.4-8.4,5.8-11.5,10.2c-3.1,4.4-5.3,9.5-6.5,15.4h64.8
		C1785,3498.4,1781.4,3491.3,1775.7,3486.1z"/>
	<path class="st0" d="M1917.3,3462.2c1.5,0.9,2.2,2,2.2,3.4c0,0.7-0.2,1.4-0.6,2.1l-7.9,14.8c-0.8,1.5-1.9,2.2-3.1,2.2
		c-0.8,0-1.6-0.2-2.3-0.7c-5.4-2.9-10.5-4.3-15.5-4.3c-4.8,0-9.3,1.4-13.5,4.2s-7.7,7-10.3,12.4c-2.6,5.4-3.9,11.8-3.9,19.2v59.5
		c0,2.7-1.3,4-4,4h-17.9c-2.7,0-4-1.3-4-4v-113.5c0-2.7,1.3-4,4-4h14c2.4,0,3.9,1.2,4.4,3.5l2.4,11c3.4-3.7,6.5-6.7,9.5-9
		s6.3-4.2,10-5.5c3.7-1.3,8-2,12.9-2C1901.3,3455.5,1909.2,3457.7,1917.3,3462.2z"/>
	<path class="st0" d="M2024,3457.5h14.2c2.7,0,4,1.3,4,4V3575c0,2.7-1.3,4-4,4h-14.5c-2.4,0-3.8-1.2-4.3-3.5l-1.4-11.1
		c-4.3,5.3-9.5,9.5-15.7,12.6c-6.1,3.1-13.1,4.6-20.9,4.6c-11.3,0-21.5-2.8-30.7-8.4c-9.2-5.6-16.5-13.3-21.8-22.9
		c-5.3-9.6-8-20.2-8-31.8c0-11.5,2.7-22.1,8-31.7c5.3-9.6,12.6-17.2,21.8-22.8c9.2-5.6,19.4-8.4,30.6-8.4c8,0,15,1.5,21.1,4.5
		c6.1,3,11.4,7.2,15.7,12.6l1.5-11.6C2020.2,3458.7,2021.7,3457.5,2024,3457.5z M2000.2,3551.8c5.5-3.3,9.8-7.8,12.9-13.5
		c3.1-5.8,4.7-12.2,4.7-19.5c0-7.2-1.6-13.7-4.6-19.6c-3.1-5.9-7.4-10.5-12.8-13.8c-5.5-3.4-11.6-5.1-18.4-5.1
		c-6.7,0-12.8,1.7-18.1,5c-5.3,3.3-9.5,7.9-12.5,13.8c-3,5.9-4.5,12.4-4.5,19.7s1.5,13.8,4.4,19.5c2.9,5.7,7.1,10.2,12.4,13.5
		c5.3,3.3,11.4,4.9,18.1,4.9C1988.6,3556.8,1994.7,3555.1,2000.2,3551.8z"/>
	<path class="st0" d="M2155.1,3462.2c1.5,0.9,2.2,2,2.2,3.4c0,0.7-0.2,1.4-0.6,2.1l-7.9,14.8c-0.8,1.5-1.9,2.2-3.1,2.2
		c-0.8,0-1.6-0.2-2.3-0.7c-5.4-2.9-10.5-4.3-15.5-4.3c-4.8,0-9.3,1.4-13.5,4.2s-7.7,7-10.3,12.4c-2.6,5.4-3.9,11.8-3.9,19.2v59.5
		c0,2.7-1.3,4-4,4h-17.9c-2.7,0-4-1.3-4-4v-113.5c0-2.7,1.3-4,4-4h14c2.4,0,3.9,1.2,4.4,3.5l2.4,11c3.4-3.7,6.5-6.7,9.5-9
		s6.3-4.2,10-5.5c3.7-1.3,8-2,12.9-2C2139.2,3455.5,2147,3457.7,2155.1,3462.2z"/>
	<path class="st0" d="M2360.4,3541.2c-5.2,10.3-12.3,18.8-21.5,25.7c-9.1,6.8-19.4,11.3-30.9,13.3v25.2c0,2.7-1.3,4-4,4h-19.3
		c-2.7,0-4-1.3-4-4V3580c-11.3-2.1-21.5-6.6-30.5-13.4c-9-6.8-16.1-15.4-21.2-25.6c-5.1-10.2-7.7-21.2-7.7-33.1
		c0-13.5,3.2-25.9,9.7-37.1c6.5-11.2,15.3-20,26.5-26.5c11.2-6.5,23.6-9.8,37.2-9.8c13.5,0,25.9,3.3,37.1,9.8
		c11.2,6.5,20.1,15.3,26.6,26.5c6.5,11.2,9.8,23.6,9.8,37.1C2368.2,3519.9,2365.6,3531,2360.4,3541.2z M2317.5,3549
		c7-4.2,12.5-9.9,16.7-17.1c4.1-7.2,6.2-15.2,6.2-23.9c0-8.8-2.1-16.7-6.2-24c-4.1-7.2-9.7-12.9-16.7-17c-7-4.1-14.6-6.2-22.7-6.2
		c-8.2,0-15.7,2.1-22.7,6.2c-7,4.1-12.6,9.8-16.7,17c-4.1,7.2-6.2,15.2-6.2,24c0,8.7,2.1,16.6,6.2,23.9c4.1,7.2,9.7,12.9,16.7,17.1
		c7,4.2,14.6,6.3,22.7,6.3C2302.9,3555.2,2310.5,3553.1,2317.5,3549z"/>
	<path class="st0" d="M2393.6,3575v-133.9c0-2.7,1.3-4,4-4h54.6c9.6,0,18.1,2,25.5,5.9c7.4,3.9,13.1,9.5,17.2,16.6
		c4.1,7.1,6.1,15.3,6.1,24.6c0,9.4-2,17.5-6.1,24.2c-4.1,6.7-9.8,11.9-17.1,15.7l24.6,50.3c0.3,0.8,0.5,1.5,0.5,2
		c0,0.8-0.3,1.5-0.9,2c-0.6,0.5-1.5,0.8-2.6,0.8H2477c-2.3,0-3.9-1-4.8-3l-20.8-45c-2.2,0.2-4.5,0.3-6.8,0.3h-23.8v43.7
		c0,2.7-1.3,4-4,4h-19.3C2394.9,3579.1,2393.6,3577.7,2393.6,3575z M2462,3504.1c3.6-1.9,6.4-4.6,8.3-8.1c2-3.5,3-7.4,3-11.8
		c0-4.6-1-8.7-3-12s-4.8-5.9-8.3-7.7c-3.5-1.8-7.6-2.6-12.1-2.6h-28.9v45.1h28.7C2454.3,3507,2458.4,3506.1,2462,3504.1z"/>
	<path class="st0" d="M2552,3571.7c-11.2-6.5-20.1-15.4-26.5-26.7c-6.5-11.3-9.7-23.6-9.7-37.1c0-13.5,3.2-25.9,9.7-37.1
		c6.5-11.2,15.3-20,26.5-26.5c11.2-6.5,23.6-9.8,37.2-9.8c8.5,0,16.5,1.3,24.2,3.9c7.6,2.6,14.5,6.3,20.7,11
		c1.1,0.9,1.7,1.9,1.7,2.9c0,0.9-0.4,1.8-1.1,2.7l-11,14.6c-0.9,1.1-2,1.7-3,1.7c-0.9,0-1.8-0.3-2.6-1c-4.2-3-8.8-5.3-13.7-7
		c-4.9-1.7-9.9-2.5-15.1-2.5c-8.2,0-15.7,2.1-22.7,6.2c-7,4.1-12.6,9.8-16.7,17c-4.1,7.2-6.2,15.2-6.2,24c0,8.7,2.1,16.6,6.2,23.9
		c4.1,7.2,9.7,12.9,16.7,17.1c7,4.2,14.6,6.3,22.7,6.3c5.5,0,10.5-0.8,15.1-2.4c4.6-1.6,9.2-4.1,13.8-7.5c0.9-0.6,1.8-0.9,2.6-0.9
		c1.2,0,2.3,0.6,3.1,1.7l10.9,14.6c0.7,1.1,1.1,2,1.1,2.8c0,0.9-0.5,1.8-1.5,2.6c-6.3,4.9-13.3,8.6-21,11.3c-7.6,2.7-15.7,4-24.2,4
		C2575.6,3581.5,2563.2,3578.2,2552,3571.7z"/>
	<path class="st0" d="M2677.9,3573.6c-9.7-5.6-17.3-13.3-23-22.9c-5.7-9.7-8.5-20.2-8.5-31.7c0-11.6,2.8-22.2,8.5-31.9
		c5.7-9.7,13.4-17.4,23.1-23s20.2-8.5,31.6-8.5c11.5,0,22,2.8,31.7,8.5s17.4,13.3,23.1,23c5.7,9.7,8.5,20.4,8.5,31.9
		c0,11.5-2.9,22-8.6,31.7c-5.7,9.7-13.5,17.3-23.2,22.9c-9.7,5.6-20.3,8.4-31.8,8.4C2698.1,3582,2687.6,3579.2,2677.9,3573.6z
		 M2728.4,3552.1c5.7-3.4,10.3-8,13.6-13.8c3.4-5.8,5.1-12.3,5.1-19.5s-1.7-13.7-5.1-19.6c-3.4-5.9-7.9-10.5-13.6-13.9
		c-5.7-3.4-11.9-5.1-18.6-5.1c-6.7,0-13,1.7-18.7,5.1c-5.7,3.4-10.3,8-13.6,13.9c-3.4,5.9-5.1,12.4-5.1,19.6s1.7,13.6,5.1,19.5
		c3.4,5.8,7.9,10.4,13.6,13.8c5.7,3.4,12,5.1,18.7,5.1C2716.5,3557.2,2722.7,3555.5,2728.4,3552.1z"/>
	<path class="st0" d="M2887.9,3421h18.2c2.7,0,4,1.3,4,4v150c0,2.7-1.3,4-4,4h-14.5c-2.4,0-3.8-1.2-4.3-3.5l-1.4-11.1
		c-4.3,5.3-9.5,9.5-15.7,12.6c-6.1,3.1-13.1,4.6-20.9,4.6c-11.3,0-21.5-2.8-30.7-8.4c-9.2-5.6-16.5-13.3-21.8-22.9
		c-5.3-9.6-8-20.2-8-31.8c0-11.5,2.7-22.1,8-31.7c5.3-9.6,12.6-17.2,21.8-22.8c9.2-5.6,19.4-8.4,30.6-8.4c7.3,0,13.9,1.3,19.7,4
		c5.8,2.7,10.7,6.4,14.9,11.1V3425C2883.9,3422.4,2885.2,3421,2887.9,3421z M2868.2,3551.8c5.5-3.3,9.8-7.8,12.9-13.5
		c3.1-5.8,4.7-12.2,4.7-19.5c0-7.2-1.6-13.7-4.6-19.6c-3.1-5.9-7.4-10.5-12.8-13.8c-5.5-3.4-11.6-5.1-18.4-5.1
		c-6.7,0-12.8,1.7-18.1,5c-5.3,3.3-9.5,7.9-12.5,13.8c-3,5.9-4.5,12.4-4.5,19.7s1.5,13.8,4.4,19.5c2.9,5.7,7.1,10.2,12.4,13.5
		c5.3,3.3,11.4,4.9,18.1,4.9C2856.5,3556.8,2862.7,3555.1,2868.2,3551.8z"/>
	<path class="st0" d="M2964.3,3573.5c-9.4-5.7-16.8-13.3-22.2-23c-5.4-9.7-8.1-20.2-8.1-31.6c0-11.5,2.5-22.1,7.6-31.8
		s12-17.4,21-23.1c8.9-5.7,18.9-8.5,29.9-8.5c11.9,0,22.2,2.7,31.1,8.2c8.9,5.5,15.6,13,20.4,22.6c4.7,9.6,7.1,20.4,7.1,32.5
		c0,1.1-0.1,3-0.2,5.7c-0.2,2.2-1.6,3.3-4.2,3.3h-86c1.2,6.2,3.6,11.6,7.1,16.3c3.5,4.6,7.8,8.2,12.9,10.8
		c5.1,2.5,10.5,3.8,16.2,3.8c9.9,0,18.9-3.1,26.9-9.2c0.8-0.7,1.7-1.1,2.7-1.1c1.1,0,2.1,0.6,2.9,1.8l8.4,11.9c0.7,1,1,1.9,1,2.6
		c0,1.1-0.5,2.2-1.6,3c-5.7,4.6-12.1,8.1-19,10.6c-6.9,2.5-14.4,3.7-22.3,3.7C2984.1,3582,2973.7,3579.2,2964.3,3573.5z
		 M3014.2,3486.1c-5.6-5.2-12.6-7.8-21-7.8c-5.3,0-10.3,1.2-14.8,3.6c-4.5,2.4-8.4,5.8-11.5,10.2c-3.1,4.4-5.3,9.5-6.5,15.4h64.8
		C3023.5,3498.4,3019.8,3491.3,3014.2,3486.1z"/>
	<path class="st0" d="M3076.2,3479.3c-0.9,0-1.9-0.4-2.8-1.2l-1.3-1.2c-1-0.8-1.5-1.7-1.5-2.7s0.5-2,1.5-3c2.7-2.8,4.6-5.6,5.9-8.3
		s1.8-5.1,1.8-7.2v-0.6h-5.9c-2.7,0-4-1.3-4-4v-15.3c0-2.7,1.3-4,4-4h14.6c2.7,0,4,1.3,4,4v14c0,5.1-1.2,10-3.6,14.7
		c-2.4,4.7-5.7,9.2-9.7,13.5C3078.2,3478.9,3077.2,3479.3,3076.2,3479.3z M3107.1,3479.3c-0.9,0-1.9-0.4-2.8-1.2l-1.3-1.2
		c-1-0.8-1.5-1.7-1.5-2.7s0.5-2,1.5-3c2.7-2.8,4.6-5.6,5.9-8.3s1.8-5.1,1.8-7.2v-0.6h-6c-2.7,0-4-1.3-4-4v-15.3c0-2.7,1.3-4,4-4
		h14.7c2.7,0,4,1.3,4,4v14c0,5.1-1.2,10-3.6,14.7c-2.4,4.7-5.7,9.2-9.7,13.5C3109.1,3478.9,3108.2,3479.3,3107.1,3479.3z"/>
</g>
</svg>
